<?xml version="1.0" encoding="utf-8" standalone="no"?>
<!DOCTYPE svg PUBLIC "-//W3C//DTD SVG 1.1//EN"
  "http://www.w3.org/Graphics/SVG/1.1/DTD/svg11.dtd">
<svg xmlns:xlink="http://www.w3.org/1999/xlink" width="758.524375pt" height="563.281187pt" viewBox="0 0 758.524375 563.281187" xmlns="http://www.w3.org/2000/svg" version="1.1">
 <metadata>
  <rdf:RDF xmlns:dc="http://purl.org/dc/elements/1.1/" xmlns:cc="http://creativecommons.org/ns#" xmlns:rdf="http://www.w3.org/1999/02/22-rdf-syntax-ns#">
   <cc:Work>
    <dc:type rdf:resource="http://purl.org/dc/dcmitype/StillImage"/>
    <dc:date>2026-05-05T14:10:33.418007</dc:date>
    <dc:format>image/svg+xml</dc:format>
    <dc:creator>
     <cc:Agent>
      <dc:title>Matplotlib v3.10.8, https://matplotlib.org/</dc:title>
     </cc:Agent>
    </dc:creator>
   </cc:Work>
  </rdf:RDF>
 </metadata>
 <defs>
  <style type="text/css">*{stroke-linejoin: round; stroke-linecap: butt}</style>
 </defs>
 <g id="figure_1">
  <g id="patch_1">
   <path d="M 0 563.281187 
L 758.524375 563.281187 
L 758.524375 0 
L 0 0 
z
" style="fill: #ffffff"/>
  </g>
  <g id="axes_1">
   <g id="patch_2">
    <path d="M 48.263437 216.849188 
L 300.980829 216.849188 
L 300.980829 22.809187 
L 48.263437 22.809187 
z
" style="fill: #ffffff"/>
   </g>
   <g id="matplotlib.axis_1">
    <g id="xtick_1">
     <g id="line2d_1">
      <defs>
       <path id="mf74ee5fd61" d="M 0 0 
L 0 3.5 
" style="stroke: #000000; stroke-width: 0.8"/>
      </defs>
      <g>
       <use xlink:href="#mf74ee5fd61" x="77.273369" y="216.849188" style="stroke: #000000; stroke-width: 0.8"/>
      </g>
     </g>
     <g id="text_1">
      <text style="font-size: 10px; font-family: 'Arial'; text-anchor: middle" x="77.273369" y="231.007" transform="rotate(-0 77.273369 231.007)">Mesor</text>
     </g>
    </g>
    <g id="xtick_2">
     <g id="line2d_2">
      <g>
       <use xlink:href="#mf74ee5fd61" x="174.622133" y="216.849188" style="stroke: #000000; stroke-width: 0.8"/>
      </g>
     </g>
     <g id="text_2">
      <text style="font-size: 10px; font-family: 'Arial'; text-anchor: middle" x="174.622133" y="231.007" transform="rotate(-0 174.622133 231.007)">Amplitude</text>
     </g>
    </g>
    <g id="xtick_3">
     <g id="line2d_3">
      <g>
       <use xlink:href="#mf74ee5fd61" x="271.970897" y="216.849188" style="stroke: #000000; stroke-width: 0.8"/>
      </g>
     </g>
     <g id="text_3">
      <text style="font-size: 10px; font-family: 'Arial'; text-anchor: middle" x="271.970897" y="231.007" transform="rotate(-0 271.970897 231.007)">Acrophase</text>
     </g>
    </g>
   </g>
   <g id="matplotlib.axis_2">
    <g id="ytick_1">
     <g id="line2d_4">
      <path d="M 48.263437 181.859202 
L 300.980829 181.859202 
" clip-path="url(#p05f9bab63e)" style="fill: none; stroke: #b0b0b0; stroke-opacity: 0.18; stroke-width: 0.6; stroke-linecap: square"/>
     </g>
     <g id="line2d_5">
      <defs>
       <path id="m53c8abf545" d="M 0 0 
L -3.5 0 
" style="stroke: #000000; stroke-width: 0.8"/>
      </defs>
      <g>
       <use xlink:href="#m53c8abf545" x="48.263437" y="181.859202" style="stroke: #000000; stroke-width: 0.8"/>
      </g>
     </g>
     <g id="text_4">
      <text style="font-size: 10px; font-family: 'Arial'; text-anchor: end" x="41.263437" y="185.438109" transform="rotate(-0 41.263437 185.438109)">−0.1</text>
     </g>
    </g>
    <g id="ytick_2">
     <g id="line2d_6">
      <path d="M 48.263437 139.901958 
L 300.980829 139.901958 
" clip-path="url(#p05f9bab63e)" style="fill: none; stroke: #b0b0b0; stroke-opacity: 0.18; stroke-width: 0.6; stroke-linecap: square"/>
     </g>
     <g id="line2d_7">
      <g>
       <use xlink:href="#m53c8abf545" x="48.263437" y="139.901958" style="stroke: #000000; stroke-width: 0.8"/>
      </g>
     </g>
     <g id="text_5">
      <text style="font-size: 10px; font-family: 'Arial'; text-anchor: end" x="41.263437" y="143.480864" transform="rotate(-0 41.263437 143.480864)">0.0</text>
     </g>
    </g>
    <g id="ytick_3">
     <g id="line2d_8">
      <path d="M 48.263437 97.944713 
L 300.980829 97.944713 
" clip-path="url(#p05f9bab63e)" style="fill: none; stroke: #b0b0b0; stroke-opacity: 0.18; stroke-width: 0.6; stroke-linecap: square"/>
     </g>
     <g id="line2d_9">
      <g>
       <use xlink:href="#m53c8abf545" x="48.263437" y="97.944713" style="stroke: #000000; stroke-width: 0.8"/>
      </g>
     </g>
     <g id="text_6">
      <text style="font-size: 10px; font-family: 'Arial'; text-anchor: end" x="41.263437" y="101.523619" transform="rotate(-0 41.263437 101.523619)">0.1</text>
     </g>
    </g>
    <g id="ytick_4">
     <g id="line2d_10">
      <path d="M 48.263437 55.987468 
L 300.980829 55.987468 
" clip-path="url(#p05f9bab63e)" style="fill: none; stroke: #b0b0b0; stroke-opacity: 0.18; stroke-width: 0.6; stroke-linecap: square"/>
     </g>
     <g id="line2d_11">
      <g>
       <use xlink:href="#m53c8abf545" x="48.263437" y="55.987468" style="stroke: #000000; stroke-width: 0.8"/>
      </g>
     </g>
     <g id="text_7">
      <text style="font-size: 10px; font-family: 'Arial'; text-anchor: end" x="41.263437" y="59.566374" transform="rotate(-0 41.263437 59.566374)">0.2</text>
     </g>
    </g>
    <g id="text_8">
     <text style="font-size: 11px; font-family: 'Arial'; text-anchor: middle" x="15.207656" y="119.829187" transform="rotate(-90 15.207656 119.829187)">Standardized score (z)</text>
    </g>
   </g>
   <g id="line2d_12">
    <path d="M 48.263437 139.901958 
L 300.980829 139.901958 
" clip-path="url(#p05f9bab63e)" style="fill: none; stroke: #7a7a7a; stroke-width: 0.9; stroke-linecap: square"/>
   </g>
   <g id="LineCollection_1">
    <path d="M 59.750592 158.253657 
L 59.750592 131.402173 
" clip-path="url(#p05f9bab63e)" style="fill: none; stroke: #1f4e79; stroke-width: 2"/>
    <path d="M 157.099356 154.213896 
L 157.099356 127.156365 
" clip-path="url(#p05f9bab63e)" style="fill: none; stroke: #1f4e79; stroke-width: 2"/>
    <path d="M 254.44812 151.917546 
L 254.44812 124.767762 
" clip-path="url(#p05f9bab63e)" style="fill: none; stroke: #1f4e79; stroke-width: 2"/>
   </g>
   <g id="line2d_13">
    <defs>
     <path id="mdafc69e066" d="M 4 0 
L -4 -0 
" style="stroke: #1f4e79"/>
    </defs>
    <g clip-path="url(#p05f9bab63e)">
     <use xlink:href="#mdafc69e066" x="59.750592" y="158.253657" style="fill: #1f4e79; stroke: #1f4e79"/>
     <use xlink:href="#mdafc69e066" x="157.099356" y="154.213896" style="fill: #1f4e79; stroke: #1f4e79"/>
     <use xlink:href="#mdafc69e066" x="254.44812" y="151.917546" style="fill: #1f4e79; stroke: #1f4e79"/>
    </g>
   </g>
   <g id="line2d_14">
    <g clip-path="url(#p05f9bab63e)">
     <use xlink:href="#mdafc69e066" x="59.750592" y="131.402173" style="fill: #1f4e79; stroke: #1f4e79"/>
     <use xlink:href="#mdafc69e066" x="157.099356" y="127.156365" style="fill: #1f4e79; stroke: #1f4e79"/>
     <use xlink:href="#mdafc69e066" x="254.44812" y="124.767762" style="fill: #1f4e79; stroke: #1f4e79"/>
    </g>
   </g>
   <g id="LineCollection_2">
    <path d="M 94.796147 138.562834 
L 94.796147 61.617187 
" clip-path="url(#p05f9bab63e)" style="fill: none; stroke: #e8635d; stroke-width: 2"/>
    <path d="M 192.144911 169.80571 
L 192.144911 97.338882 
" clip-path="url(#p05f9bab63e)" style="fill: none; stroke: #e8635d; stroke-width: 2"/>
    <path d="M 289.493675 187.574751 
L 289.493675 117.433978 
" clip-path="url(#p05f9bab63e)" style="fill: none; stroke: #e8635d; stroke-width: 2"/>
   </g>
   <g id="line2d_15">
    <defs>
     <path id="m7a0f045e1f" d="M 4 0 
L -4 -0 
" style="stroke: #e8635d"/>
    </defs>
    <g clip-path="url(#p05f9bab63e)">
     <use xlink:href="#m7a0f045e1f" x="94.796147" y="138.562834" style="fill: #e8635d; stroke: #e8635d"/>
     <use xlink:href="#m7a0f045e1f" x="192.144911" y="169.80571" style="fill: #e8635d; stroke: #e8635d"/>
     <use xlink:href="#m7a0f045e1f" x="289.493675" y="187.574751" style="fill: #e8635d; stroke: #e8635d"/>
    </g>
   </g>
   <g id="line2d_16">
    <g clip-path="url(#p05f9bab63e)">
     <use xlink:href="#m7a0f045e1f" x="94.796147" y="61.617187" style="fill: #e8635d; stroke: #e8635d"/>
     <use xlink:href="#m7a0f045e1f" x="192.144911" y="97.338882" style="fill: #e8635d; stroke: #e8635d"/>
     <use xlink:href="#m7a0f045e1f" x="289.493675" y="117.433978" style="fill: #e8635d; stroke: #e8635d"/>
    </g>
   </g>
   <g id="line2d_17">
    <path d="M 59.750592 51.268387 
L 94.796147 51.268387 
" clip-path="url(#p05f9bab63e)" style="fill: none; stroke: #222222; stroke-linecap: square"/>
   </g>
   <g id="line2d_18">
    <defs>
     <path id="m0e89a118a0" d="M 0 5 
C 1.326016 5 2.597899 4.473168 3.535534 3.535534 
C 4.473168 2.597899 5 1.326016 5 0 
C 5 -1.326016 4.473168 -2.597899 3.535534 -3.535534 
C 2.597899 -4.473168 1.326016 -5 0 -5 
C -1.326016 -5 -2.597899 -4.473168 -3.535534 -3.535534 
C -4.473168 -2.597899 -5 -1.326016 -5 0 
C -5 1.326016 -4.473168 2.597899 -3.535534 3.535534 
C -2.597899 4.473168 -1.326016 5 0 5 
z
" style="stroke: #ffffff"/>
    </defs>
    <g clip-path="url(#p05f9bab63e)">
     <use xlink:href="#m0e89a118a0" x="59.750592" y="144.827915" style="fill: #1f4e79; stroke: #ffffff"/>
     <use xlink:href="#m0e89a118a0" x="157.099356" y="140.685131" style="fill: #1f4e79; stroke: #ffffff"/>
     <use xlink:href="#m0e89a118a0" x="254.44812" y="138.342654" style="fill: #1f4e79; stroke: #ffffff"/>
    </g>
   </g>
   <g id="line2d_19">
    <defs>
     <path id="m811c485dfc" d="M 0 5 
C 1.326016 5 2.597899 4.473168 3.535534 3.535534 
C 4.473168 2.597899 5 1.326016 5 0 
C 5 -1.326016 4.473168 -2.597899 3.535534 -3.535534 
C 2.597899 -4.473168 1.326016 -5 0 -5 
C -1.326016 -5 -2.597899 -4.473168 -3.535534 -3.535534 
C -4.473168 -2.597899 -5 -1.326016 -5 0 
C -5 1.326016 -4.473168 2.597899 -3.535534 3.535534 
C -2.597899 4.473168 -1.326016 5 0 5 
z
" style="stroke: #ffffff"/>
    </defs>
    <g clip-path="url(#p05f9bab63e)">
     <use xlink:href="#m811c485dfc" x="94.796147" y="100.090011" style="fill: #e8635d; stroke: #ffffff"/>
     <use xlink:href="#m811c485dfc" x="192.144911" y="133.572296" style="fill: #e8635d; stroke: #ffffff"/>
     <use xlink:href="#m811c485dfc" x="289.493675" y="152.504364" style="fill: #e8635d; stroke: #ffffff"/>
    </g>
   </g>
   <g id="patch_3">
    <path d="M 48.263437 216.849188 
L 48.263437 22.809187 
" style="fill: none; stroke: #222222; stroke-width: 0.9; stroke-linejoin: miter; stroke-linecap: square"/>
   </g>
   <g id="patch_4">
    <path d="M 48.263438 216.849188 
L 300.980829 216.849188 
" style="fill: none; stroke: #222222; stroke-width: 0.9; stroke-linejoin: miter; stroke-linecap: square"/>
   </g>
   <g id="text_9">
    <text style="font-weight: 700; font-size: 14px; font-family: 'Arial'; text-anchor: middle" x="77.273369" y="47.211975" transform="rotate(-0 77.273369 47.211975)">*</text>
   </g>
   <g id="text_10">
    <text style="font-size: 9px; font-family: 'Arial'; text-anchor: end; fill: #555555" x="298.453655" y="35.072419" transform="rotate(-0 298.453655 35.072419)">n = 4,205; cases = 463</text>
   </g>
   <g id="text_11">
    <text style="font-weight: 700; font-size: 13.2px; font-family: 'Arial'; text-anchor: start; fill: #1f4e79" x="48.263437" y="16.809187" transform="rotate(-0 48.263437 16.809187)">A.  Between-person cosinor features</text>
   </g>
  </g>
  <g id="axes_2">
   <g id="patch_5">
    <path d="M 391.95909 216.849188 
L 745.763438 216.849188 
L 745.763438 22.809187 
L 391.95909 22.809187 
z
" style="fill: #ffffff"/>
   </g>
   <g id="FillBetweenPolyCollection_1">
    <defs>
     <path id="mc09431ccbd" d="M 399.330014 -383.965365 
L 399.330014 -379.803116 
L 414.071861 -367.886598 
L 428.813709 -360.302435 
L 443.555557 -356.052506 
L 458.297405 -355.252 
L 473.039253 -358.797881 
L 487.781101 -376.442646 
L 502.522948 -426.743357 
L 517.264796 -460.480401 
L 532.006644 -470.321282 
L 546.748492 -479.41588 
L 561.49034 -493.769612 
L 576.232188 -512.587389 
L 590.974035 -512.689799 
L 605.715883 -511.136848 
L 620.457731 -514.005223 
L 635.199579 -507.602702 
L 649.941427 -509.657517 
L 664.683274 -513.364258 
L 679.425122 -509.34776 
L 694.16697 -492.126807 
L 708.908818 -460.693472 
L 723.650666 -425.011056 
L 738.392514 -398.766787 
L 738.392514 -403.120159 
L 738.392514 -403.120159 
L 723.650666 -429.515234 
L 708.908818 -465.186386 
L 694.16697 -496.401575 
L 679.425122 -513.598611 
L 664.683274 -517.606548 
L 649.941427 -513.949277 
L 635.199579 -511.926612 
L 620.457731 -518.325394 
L 605.715883 -515.425292 
L 590.974035 -517.004969 
L 576.232188 -517.002178 
L 561.49034 -498.269338 
L 546.748492 -483.878098 
L 532.006644 -474.88606 
L 517.264796 -465.321405 
L 502.522948 -431.664102 
L 487.781101 -380.505562 
L 473.039253 -362.520189 
L 458.297405 -358.955694 
L 443.555557 -359.783443 
L 428.813709 -364.164728 
L 414.071861 -371.883797 
L 399.330014 -383.965365 
z
"/>
    </defs>
    <g clip-path="url(#pd9f7b8641e)">
     <use xlink:href="#mc09431ccbd" x="0" y="563.281187" style="fill: #1f4e79; fill-opacity: 0.18"/>
    </g>
   </g>
   <g id="FillBetweenPolyCollection_2">
    <defs>
     <path id="m9ff62194de" d="M 399.330014 -395.201185 
L 399.330014 -383.777646 
L 414.071861 -370.761109 
L 428.813709 -362.023071 
L 443.555557 -357.016144 
L 458.297405 -355.622769 
L 473.039253 -358.205094 
L 487.781101 -375.618715 
L 502.522948 -426.003858 
L 517.264796 -463.414513 
L 532.006644 -474.469117 
L 546.748492 -483.427384 
L 561.49034 -499.764064 
L 576.232188 -518.882605 
L 590.974035 -518.066967 
L 605.715883 -515.61218 
L 620.457731 -516.300399 
L 635.199579 -504.899921 
L 649.941427 -505.952011 
L 664.683274 -511.28385 
L 679.425122 -509.241136 
L 694.16697 -493.731735 
L 708.908818 -464.923189 
L 723.650666 -430.100375 
L 738.392514 -403.574833 
L 738.392514 -415.554008 
L 738.392514 -415.554008 
L 723.650666 -442.782244 
L 708.908818 -477.621283 
L 694.16697 -506.009171 
L 679.425122 -521.297189 
L 664.683274 -523.332457 
L 649.941427 -518.288274 
L 635.199579 -517.482441 
L 620.457731 -528.786401 
L 605.715883 -527.915855 
L 590.974035 -530.515245 
L 576.232188 -531.652 
L 561.49034 -512.856336 
L 546.748492 -496.632144 
L 532.006644 -487.751211 
L 517.264796 -476.888634 
L 502.522948 -439.604524 
L 487.781101 -386.95372 
L 473.039253 -368.405528 
L 458.297405 -365.91793 
L 443.555557 -367.374418 
L 428.813709 -372.523083 
L 414.071861 -381.781696 
L 399.330014 -395.201185 
z
"/>
    </defs>
    <g clip-path="url(#pd9f7b8641e)">
     <use xlink:href="#m9ff62194de" x="0" y="563.281187" style="fill: #e8635d; fill-opacity: 0.22"/>
    </g>
   </g>
   <g id="matplotlib.axis_3">
    <g id="xtick_4">
     <g id="line2d_20">
      <path d="M 391.95909 216.849188 
L 391.95909 22.809187 
" clip-path="url(#pd9f7b8641e)" style="fill: none; stroke: #b0b0b0; stroke-opacity: 0.18; stroke-width: 0.6; stroke-linecap: square"/>
     </g>
     <g id="line2d_21">
      <g>
       <use xlink:href="#mf74ee5fd61" x="391.95909" y="216.849188" style="stroke: #000000; stroke-width: 0.8"/>
      </g>
     </g>
    </g>
    <g id="xtick_5">
     <g id="line2d_22">
      <path d="M 450.926481 216.849188 
L 450.926481 22.809187 
" clip-path="url(#pd9f7b8641e)" style="fill: none; stroke: #b0b0b0; stroke-opacity: 0.18; stroke-width: 0.6; stroke-linecap: square"/>
     </g>
     <g id="line2d_23">
      <g>
       <use xlink:href="#mf74ee5fd61" x="450.926481" y="216.849188" style="stroke: #000000; stroke-width: 0.8"/>
      </g>
     </g>
    </g>
    <g id="xtick_6">
     <g id="line2d_24">
      <path d="M 509.893872 216.849188 
L 509.893872 22.809187 
" clip-path="url(#pd9f7b8641e)" style="fill: none; stroke: #b0b0b0; stroke-opacity: 0.18; stroke-width: 0.6; stroke-linecap: square"/>
     </g>
     <g id="line2d_25">
      <g>
       <use xlink:href="#mf74ee5fd61" x="509.893872" y="216.849188" style="stroke: #000000; stroke-width: 0.8"/>
      </g>
     </g>
    </g>
    <g id="xtick_7">
     <g id="line2d_26">
      <path d="M 568.861264 216.849188 
L 568.861264 22.809187 
" clip-path="url(#pd9f7b8641e)" style="fill: none; stroke: #b0b0b0; stroke-opacity: 0.18; stroke-width: 0.6; stroke-linecap: square"/>
     </g>
     <g id="line2d_27">
      <g>
       <use xlink:href="#mf74ee5fd61" x="568.861264" y="216.849188" style="stroke: #000000; stroke-width: 0.8"/>
      </g>
     </g>
    </g>
    <g id="xtick_8">
     <g id="line2d_28">
      <path d="M 627.828655 216.849188 
L 627.828655 22.809187 
" clip-path="url(#pd9f7b8641e)" style="fill: none; stroke: #b0b0b0; stroke-opacity: 0.18; stroke-width: 0.6; stroke-linecap: square"/>
     </g>
     <g id="line2d_29">
      <g>
       <use xlink:href="#mf74ee5fd61" x="627.828655" y="216.849188" style="stroke: #000000; stroke-width: 0.8"/>
      </g>
     </g>
    </g>
    <g id="xtick_9">
     <g id="line2d_30">
      <path d="M 686.796046 216.849188 
L 686.796046 22.809187 
" clip-path="url(#pd9f7b8641e)" style="fill: none; stroke: #b0b0b0; stroke-opacity: 0.18; stroke-width: 0.6; stroke-linecap: square"/>
     </g>
     <g id="line2d_31">
      <g>
       <use xlink:href="#mf74ee5fd61" x="686.796046" y="216.849188" style="stroke: #000000; stroke-width: 0.8"/>
      </g>
     </g>
    </g>
    <g id="xtick_10">
     <g id="line2d_32">
      <path d="M 745.763438 216.849188 
L 745.763438 22.809187 
" clip-path="url(#pd9f7b8641e)" style="fill: none; stroke: #b0b0b0; stroke-opacity: 0.18; stroke-width: 0.6; stroke-linecap: square"/>
     </g>
     <g id="line2d_33">
      <g>
       <use xlink:href="#mf74ee5fd61" x="745.763438" y="216.849188" style="stroke: #000000; stroke-width: 0.8"/>
      </g>
     </g>
    </g>
   </g>
   <g id="matplotlib.axis_4">
    <g id="ytick_5">
     <g id="line2d_34">
      <path d="M 391.95909 206.28179 
L 745.763438 206.28179 
" clip-path="url(#pd9f7b8641e)" style="fill: none; stroke: #b0b0b0; stroke-opacity: 0.18; stroke-width: 0.6; stroke-linecap: square"/>
     </g>
     <g id="line2d_35">
      <g>
       <use xlink:href="#m53c8abf545" x="391.95909" y="206.28179" style="stroke: #000000; stroke-width: 0.8"/>
      </g>
     </g>
     <g id="text_12">
      <text style="font-size: 10px; font-family: 'Arial'; text-anchor: end" x="384.95909" y="209.860696" transform="rotate(-0 384.95909 209.860696)">70</text>
     </g>
    </g>
    <g id="ytick_6">
     <g id="line2d_36">
      <path d="M 391.95909 169.831879 
L 745.763438 169.831879 
" clip-path="url(#pd9f7b8641e)" style="fill: none; stroke: #b0b0b0; stroke-opacity: 0.18; stroke-width: 0.6; stroke-linecap: square"/>
     </g>
     <g id="line2d_37">
      <g>
       <use xlink:href="#m53c8abf545" x="391.95909" y="169.831879" style="stroke: #000000; stroke-width: 0.8"/>
      </g>
     </g>
     <g id="text_13">
      <text style="font-size: 10px; font-family: 'Arial'; text-anchor: end" x="384.95909" y="173.410785" transform="rotate(-0 384.95909 173.410785)">75</text>
     </g>
    </g>
    <g id="ytick_7">
     <g id="line2d_38">
      <path d="M 391.95909 133.381968 
L 745.763438 133.381968 
" clip-path="url(#pd9f7b8641e)" style="fill: none; stroke: #b0b0b0; stroke-opacity: 0.18; stroke-width: 0.6; stroke-linecap: square"/>
     </g>
     <g id="line2d_39">
      <g>
       <use xlink:href="#m53c8abf545" x="391.95909" y="133.381968" style="stroke: #000000; stroke-width: 0.8"/>
      </g>
     </g>
     <g id="text_14">
      <text style="font-size: 10px; font-family: 'Arial'; text-anchor: end" x="384.95909" y="136.960874" transform="rotate(-0 384.95909 136.960874)">80</text>
     </g>
    </g>
    <g id="ytick_8">
     <g id="line2d_40">
      <path d="M 391.95909 96.932057 
L 745.763438 96.932057 
" clip-path="url(#pd9f7b8641e)" style="fill: none; stroke: #b0b0b0; stroke-opacity: 0.18; stroke-width: 0.6; stroke-linecap: square"/>
     </g>
     <g id="line2d_41">
      <g>
       <use xlink:href="#m53c8abf545" x="391.95909" y="96.932057" style="stroke: #000000; stroke-width: 0.8"/>
      </g>
     </g>
     <g id="text_15">
      <text style="font-size: 10px; font-family: 'Arial'; text-anchor: end" x="384.95909" y="100.510963" transform="rotate(-0 384.95909 100.510963)">85</text>
     </g>
    </g>
    <g id="ytick_9">
     <g id="line2d_42">
      <path d="M 391.95909 60.482145 
L 745.763438 60.482145 
" clip-path="url(#pd9f7b8641e)" style="fill: none; stroke: #b0b0b0; stroke-opacity: 0.18; stroke-width: 0.6; stroke-linecap: square"/>
     </g>
     <g id="line2d_43">
      <g>
       <use xlink:href="#m53c8abf545" x="391.95909" y="60.482145" style="stroke: #000000; stroke-width: 0.8"/>
      </g>
     </g>
     <g id="text_16">
      <text style="font-size: 10px; font-family: 'Arial'; text-anchor: end" x="384.95909" y="64.061052" transform="rotate(-0 384.95909 64.061052)">90</text>
     </g>
    </g>
    <g id="ytick_10">
     <g id="line2d_44">
      <path d="M 391.95909 24.032234 
L 745.763438 24.032234 
" clip-path="url(#pd9f7b8641e)" style="fill: none; stroke: #b0b0b0; stroke-opacity: 0.18; stroke-width: 0.6; stroke-linecap: square"/>
     </g>
     <g id="line2d_45">
      <g>
       <use xlink:href="#m53c8abf545" x="391.95909" y="24.032234" style="stroke: #000000; stroke-width: 0.8"/>
      </g>
     </g>
     <g id="text_17">
      <text style="font-size: 10px; font-family: 'Arial'; text-anchor: end" x="384.95909" y="27.611141" transform="rotate(-0 384.95909 27.611141)">95</text>
     </g>
    </g>
    <g id="text_18">
     <text style="font-size: 11px; font-family: 'Arial'; text-anchor: middle" x="367.522058" y="119.829187" transform="rotate(-90 367.522058 119.829187)">Heart rate (bpm)</text>
    </g>
   </g>
   <g id="line2d_46">
    <path d="M 399.330014 181.396947 
L 414.071861 193.39599 
L 428.813709 201.047606 
L 443.555557 205.363213 
L 458.297405 206.17734 
L 473.039253 202.622152 
L 487.781101 184.807083 
L 502.522948 134.077458 
L 517.264796 100.380284 
L 532.006644 90.677517 
L 546.748492 81.634198 
L 561.49034 67.261712 
L 576.232188 48.486404 
L 590.974035 48.433804 
L 605.715883 50.000117 
L 620.457731 47.115879 
L 635.199579 53.51653 
L 649.941427 51.47779 
L 664.683274 47.795784 
L 679.425122 51.808002 
L 694.16697 69.016996 
L 708.908818 100.341258 
L 723.650666 136.018042 
L 738.392514 162.337715 
" clip-path="url(#pd9f7b8641e)" style="fill: none; stroke: #1f4e79; stroke-width: 2.2; stroke-linecap: square"/>
   </g>
   <g id="line2d_47">
    <path d="M 399.330014 173.791772 
L 414.071861 187.009785 
L 428.813709 196.008111 
L 443.555557 201.085906 
L 458.297405 202.510838 
L 473.039253 199.975877 
L 487.781101 181.99497 
L 502.522948 130.476996 
L 517.264796 93.129614 
L 532.006644 82.171023 
L 546.748492 73.251423 
L 561.49034 56.970988 
L 576.232188 38.013885 
L 590.974035 38.990081 
L 605.715883 41.51717 
L 620.457731 40.737788 
L 635.199579 52.090006 
L 649.941427 51.161045 
L 664.683274 45.973034 
L 679.425122 48.012025 
L 694.16697 63.410734 
L 708.908818 92.008952 
L 723.650666 126.839878 
L 738.392514 153.716767 
" clip-path="url(#pd9f7b8641e)" style="fill: none; stroke: #e8635d; stroke-width: 2.2; stroke-linecap: square"/>
   </g>
   <g id="patch_6">
    <path d="M 391.95909 216.849188 
L 391.95909 22.809187 
" style="fill: none; stroke: #222222; stroke-width: 0.9; stroke-linejoin: miter; stroke-linecap: square"/>
   </g>
   <g id="patch_7">
    <path d="M 391.95909 216.849188 
L 745.763438 216.849188 
" style="fill: none; stroke: #222222; stroke-width: 0.9; stroke-linejoin: miter; stroke-linecap: square"/>
   </g>
   <g id="text_19">
    <text style="font-weight: 700; font-size: 13.2px; font-family: 'Arial'; text-anchor: start; fill: #1f4e79" x="391.95909" y="16.809187" transform="rotate(-0 391.95909 16.809187)">B.  24-hour HR rhythm at Wave 2</text>
   </g>
  </g>
  <g id="axes_3">
   <g id="patch_8">
    <path d="M 48.263437 488.505187 
L 300.980829 488.505187 
L 300.980829 294.465188 
L 48.263437 294.465188 
z
" style="fill: #ffffff"/>
   </g>
   <g id="matplotlib.axis_5">
    <g id="xtick_11">
     <g id="line2d_48">
      <g>
       <use xlink:href="#mf74ee5fd61" x="77.273369" y="488.505187" style="stroke: #000000; stroke-width: 0.8"/>
      </g>
     </g>
     <g id="text_20">
      <text style="font-size: 10px; font-family: 'Arial'" transform="translate(58.6554 502.784875)">SD daily</text>
      <text style="font-size: 10px; font-family: 'Arial'" transform="translate(63.382744 513.478938)">mesor</text>
     </g>
    </g>
    <g id="xtick_12">
     <g id="line2d_49">
      <g>
       <use xlink:href="#mf74ee5fd61" x="174.622133" y="488.505187" style="stroke: #000000; stroke-width: 0.8"/>
      </g>
     </g>
     <g id="text_21">
      <text style="font-size: 10px; font-family: 'Arial'" transform="translate(156.004164 502.784875)">SD daily</text>
      <text style="font-size: 10px; font-family: 'Arial'" transform="translate(152.944008 513.478938)">amplitude</text>
     </g>
    </g>
    <g id="xtick_13">
     <g id="line2d_50">
      <g>
       <use xlink:href="#mf74ee5fd61" x="271.970897" y="488.505187" style="stroke: #000000; stroke-width: 0.8"/>
      </g>
     </g>
     <g id="text_22">
      <text style="font-size: 10px; font-family: 'Arial'" transform="translate(253.352928 502.784875)">SD daily</text>
      <text style="font-size: 10px; font-family: 'Arial'" transform="translate(248.623241 513.478938)">acrophase</text>
     </g>
    </g>
   </g>
   <g id="matplotlib.axis_6">
    <g id="ytick_11">
     <g id="line2d_51">
      <path d="M 48.263437 470.748709 
L 300.980829 470.748709 
" clip-path="url(#p8ff8fb310a)" style="fill: none; stroke: #b0b0b0; stroke-opacity: 0.18; stroke-width: 0.6; stroke-linecap: square"/>
     </g>
     <g id="line2d_52">
      <g>
       <use xlink:href="#m53c8abf545" x="48.263437" y="470.748709" style="stroke: #000000; stroke-width: 0.8"/>
      </g>
     </g>
     <g id="text_23">
      <text style="font-size: 10px; font-family: 'Arial'; text-anchor: end" x="41.263437" y="474.327615" transform="rotate(-0 41.263437 474.327615)">−0.1</text>
     </g>
    </g>
    <g id="ytick_12">
     <g id="line2d_53">
      <path d="M 48.263437 431.502204 
L 300.980829 431.502204 
" clip-path="url(#p8ff8fb310a)" style="fill: none; stroke: #b0b0b0; stroke-opacity: 0.18; stroke-width: 0.6; stroke-linecap: square"/>
     </g>
     <g id="line2d_54">
      <g>
       <use xlink:href="#m53c8abf545" x="48.263437" y="431.502204" style="stroke: #000000; stroke-width: 0.8"/>
      </g>
     </g>
     <g id="text_24">
      <text style="font-size: 10px; font-family: 'Arial'; text-anchor: end" x="41.263437" y="435.081111" transform="rotate(-0 41.263437 435.081111)">0.0</text>
     </g>
    </g>
    <g id="ytick_13">
     <g id="line2d_55">
      <path d="M 48.263437 392.2557 
L 300.980829 392.2557 
" clip-path="url(#p8ff8fb310a)" style="fill: none; stroke: #b0b0b0; stroke-opacity: 0.18; stroke-width: 0.6; stroke-linecap: square"/>
     </g>
     <g id="line2d_56">
      <g>
       <use xlink:href="#m53c8abf545" x="48.263437" y="392.2557" style="stroke: #000000; stroke-width: 0.8"/>
      </g>
     </g>
     <g id="text_25">
      <text style="font-size: 10px; font-family: 'Arial'; text-anchor: end" x="41.263437" y="395.834606" transform="rotate(-0 41.263437 395.834606)">0.1</text>
     </g>
    </g>
    <g id="ytick_14">
     <g id="line2d_57">
      <path d="M 48.263437 353.009196 
L 300.980829 353.009196 
" clip-path="url(#p8ff8fb310a)" style="fill: none; stroke: #b0b0b0; stroke-opacity: 0.18; stroke-width: 0.6; stroke-linecap: square"/>
     </g>
     <g id="line2d_58">
      <g>
       <use xlink:href="#m53c8abf545" x="48.263437" y="353.009196" style="stroke: #000000; stroke-width: 0.8"/>
      </g>
     </g>
     <g id="text_26">
      <text style="font-size: 10px; font-family: 'Arial'; text-anchor: end" x="41.263437" y="356.588102" transform="rotate(-0 41.263437 356.588102)">0.2</text>
     </g>
    </g>
    <g id="ytick_15">
     <g id="line2d_59">
      <path d="M 48.263437 313.762692 
L 300.980829 313.762692 
" clip-path="url(#p8ff8fb310a)" style="fill: none; stroke: #b0b0b0; stroke-opacity: 0.18; stroke-width: 0.6; stroke-linecap: square"/>
     </g>
     <g id="line2d_60">
      <g>
       <use xlink:href="#m53c8abf545" x="48.263437" y="313.762692" style="stroke: #000000; stroke-width: 0.8"/>
      </g>
     </g>
     <g id="text_27">
      <text style="font-size: 10px; font-family: 'Arial'; text-anchor: end" x="41.263437" y="317.341598" transform="rotate(-0 41.263437 317.341598)">0.3</text>
     </g>
    </g>
    <g id="text_28">
     <text style="font-size: 11px; font-family: 'Arial'; text-anchor: middle" x="15.207656" y="391.485187" transform="rotate(-90 15.207656 391.485187)">Standardized score (z)</text>
    </g>
   </g>
   <g id="line2d_61">
    <path d="M 48.263437 431.502204 
L 300.980829 431.502204 
" clip-path="url(#p8ff8fb310a)" style="fill: none; stroke: #7a7a7a; stroke-width: 0.9; stroke-linecap: square"/>
   </g>
   <g id="LineCollection_3">
    <path d="M 59.750592 450.20221 
L 59.750592 423.382829 
" clip-path="url(#p8ff8fb310a)" style="fill: none; stroke: #1f4e79; stroke-width: 2"/>
    <path d="M 157.099356 446.37698 
L 157.099356 419.419992 
" clip-path="url(#p8ff8fb310a)" style="fill: none; stroke: #1f4e79; stroke-width: 2"/>
    <path d="M 254.44812 451.644175 
L 254.44812 425.275957 
" clip-path="url(#p8ff8fb310a)" style="fill: none; stroke: #1f4e79; stroke-width: 2"/>
   </g>
   <g id="line2d_62">
    <g clip-path="url(#p8ff8fb310a)">
     <use xlink:href="#mdafc69e066" x="59.750592" y="450.20221" style="fill: #1f4e79; stroke: #1f4e79"/>
     <use xlink:href="#mdafc69e066" x="157.099356" y="446.37698" style="fill: #1f4e79; stroke: #1f4e79"/>
     <use xlink:href="#mdafc69e066" x="254.44812" y="451.644175" style="fill: #1f4e79; stroke: #1f4e79"/>
    </g>
   </g>
   <g id="line2d_63">
    <g clip-path="url(#p8ff8fb310a)">
     <use xlink:href="#mdafc69e066" x="59.750592" y="423.382829" style="fill: #1f4e79; stroke: #1f4e79"/>
     <use xlink:href="#mdafc69e066" x="157.099356" y="419.419992" style="fill: #1f4e79; stroke: #1f4e79"/>
     <use xlink:href="#mdafc69e066" x="254.44812" y="425.275957" style="fill: #1f4e79; stroke: #1f4e79"/>
    </g>
   </g>
   <g id="LineCollection_4">
    <path d="M 94.796147 426.684738 
L 94.796147 351.339146 
" clip-path="url(#p8ff8fb310a)" style="fill: none; stroke: #e8635d; stroke-width: 2"/>
    <path d="M 192.144911 456.583472 
L 192.144911 383.991884 
" clip-path="url(#p8ff8fb310a)" style="fill: none; stroke: #e8635d; stroke-width: 2"/>
    <path d="M 289.493675 417.964207 
L 289.493675 333.273188 
" clip-path="url(#p8ff8fb310a)" style="fill: none; stroke: #e8635d; stroke-width: 2"/>
   </g>
   <g id="line2d_64">
    <g clip-path="url(#p8ff8fb310a)">
     <use xlink:href="#m7a0f045e1f" x="94.796147" y="426.684738" style="fill: #e8635d; stroke: #e8635d"/>
     <use xlink:href="#m7a0f045e1f" x="192.144911" y="456.583472" style="fill: #e8635d; stroke: #e8635d"/>
     <use xlink:href="#m7a0f045e1f" x="289.493675" y="417.964207" style="fill: #e8635d; stroke: #e8635d"/>
    </g>
   </g>
   <g id="line2d_65">
    <g clip-path="url(#p8ff8fb310a)">
     <use xlink:href="#m7a0f045e1f" x="94.796147" y="351.339146" style="fill: #e8635d; stroke: #e8635d"/>
     <use xlink:href="#m7a0f045e1f" x="192.144911" y="383.991884" style="fill: #e8635d; stroke: #e8635d"/>
     <use xlink:href="#m7a0f045e1f" x="289.493675" y="333.273188" style="fill: #e8635d; stroke: #e8635d"/>
    </g>
   </g>
   <g id="line2d_66">
    <path d="M 59.750592 340.990346 
L 94.796147 340.990346 
" clip-path="url(#p8ff8fb310a)" style="fill: none; stroke: #222222; stroke-linecap: square"/>
   </g>
   <g id="line2d_67">
    <path d="M 254.44812 322.924387 
L 289.493675 322.924387 
" clip-path="url(#p8ff8fb310a)" style="fill: none; stroke: #222222; stroke-linecap: square"/>
   </g>
   <g id="line2d_68">
    <g clip-path="url(#p8ff8fb310a)">
     <use xlink:href="#m0e89a118a0" x="59.750592" y="436.79252" style="fill: #1f4e79; stroke: #ffffff"/>
     <use xlink:href="#m0e89a118a0" x="157.099356" y="432.898486" style="fill: #1f4e79; stroke: #ffffff"/>
     <use xlink:href="#m0e89a118a0" x="254.44812" y="438.460066" style="fill: #1f4e79; stroke: #ffffff"/>
    </g>
   </g>
   <g id="line2d_69">
    <g clip-path="url(#p8ff8fb310a)">
     <use xlink:href="#m811c485dfc" x="94.796147" y="389.011942" style="fill: #e8635d; stroke: #ffffff"/>
     <use xlink:href="#m811c485dfc" x="192.144911" y="420.287678" style="fill: #e8635d; stroke: #ffffff"/>
     <use xlink:href="#m811c485dfc" x="289.493675" y="375.618697" style="fill: #e8635d; stroke: #ffffff"/>
    </g>
   </g>
   <g id="patch_9">
    <path d="M 48.263437 488.505187 
L 48.263437 294.465188 
" style="fill: none; stroke: #222222; stroke-width: 0.9; stroke-linejoin: miter; stroke-linecap: square"/>
   </g>
   <g id="patch_10">
    <path d="M 48.263438 488.505187 
L 300.980829 488.505187 
" style="fill: none; stroke: #222222; stroke-width: 0.9; stroke-linejoin: miter; stroke-linecap: square"/>
   </g>
   <g id="text_29">
    <text style="font-weight: 700; font-size: 14px; font-family: 'Arial'; text-anchor: middle" x="77.273369" y="336.933933" transform="rotate(-0 77.273369 336.933933)">*</text>
   </g>
   <g id="text_30">
    <text style="font-weight: 700; font-size: 14px; font-family: 'Arial'; text-anchor: middle" x="271.970897" y="318.867975" transform="rotate(-0 271.970897 318.867975)">**</text>
   </g>
   <g id="text_31">
    <text style="font-size: 9px; font-family: 'Arial'; text-anchor: end; fill: #555555" x="298.453655" y="306.728419" transform="rotate(-0 298.453655 306.728419)">n = 3,703; cases = 410</text>
   </g>
   <g id="text_32">
    <text style="font-weight: 700; font-size: 13.2px; font-family: 'Arial'; text-anchor: start; fill: #1f4e79" x="48.263437" y="288.465188" transform="rotate(-0 48.263437 288.465188)">C.  Within-person cosinor features</text>
   </g>
  </g>
  <g id="axes_4">
   <g id="patch_11">
    <path d="M 391.95909 488.505187 
L 745.763438 488.505187 
L 745.763438 294.465188 
L 391.95909 294.465188 
z
" style="fill: #ffffff"/>
   </g>
   <g id="FillBetweenPolyCollection_3">
    <defs>
     <path id="m0356f54fdb" d="M 399.330014 -233.329386 
L 399.330014 -141.83969 
L 414.071861 -134.304038 
L 428.813709 -126.184035 
L 443.555557 -121.118782 
L 458.297405 -116.780654 
L 473.039253 -109.414738 
L 487.781101 -106.212468 
L 502.522948 -103.0309 
L 517.264796 -131.048176 
L 532.006644 -141.524436 
L 546.748492 -140.99335 
L 561.49034 -155.705648 
L 576.232188 -158.326283 
L 590.974035 -151.848978 
L 605.715883 -145.166115 
L 620.457731 -128.64 
L 635.199579 -91.031831 
L 649.941427 -83.596 
L 664.683274 -96.011632 
L 679.425122 -110.82293 
L 694.16697 -123.629376 
L 708.908818 -142.377482 
L 723.650666 -148.785894 
L 738.392514 -147.272883 
L 738.392514 -243.183458 
L 738.392514 -243.183458 
L 723.650666 -250.056502 
L 708.908818 -243.734845 
L 694.16697 -221.45628 
L 679.425122 -207.018139 
L 664.683274 -192.132589 
L 649.941427 -181.883011 
L 635.199579 -191.149236 
L 620.457731 -228.061608 
L 605.715883 -243.213335 
L 590.974035 -250.990033 
L 576.232188 -259.996 
L 561.49034 -259.880648 
L 546.748492 -245.878523 
L 532.006644 -247.209381 
L 517.264796 -238.785638 
L 502.522948 -211.867679 
L 487.781101 -196.821558 
L 473.039253 -191.123455 
L 458.297405 -199.111837 
L 443.555557 -203.966246 
L 428.813709 -210.371844 
L 414.071861 -222.519673 
L 399.330014 -233.329386 
z
"/>
    </defs>
    <g clip-path="url(#pced86f2d4e)">
     <use xlink:href="#m0356f54fdb" x="0" y="563.281187" style="fill: #6b5b95; fill-opacity: 0.22"/>
    </g>
   </g>
   <g id="matplotlib.axis_7">
    <g id="xtick_14">
     <g id="line2d_70">
      <path d="M 391.95909 488.505187 
L 391.95909 294.465188 
" clip-path="url(#pced86f2d4e)" style="fill: none; stroke: #b0b0b0; stroke-opacity: 0.18; stroke-width: 0.6; stroke-linecap: square"/>
     </g>
     <g id="line2d_71">
      <g>
       <use xlink:href="#mf74ee5fd61" x="391.95909" y="488.505187" style="stroke: #000000; stroke-width: 0.8"/>
      </g>
     </g>
     <g id="text_33">
      <text style="font-size: 10px; font-family: 'Arial'; text-anchor: middle" x="391.95909" y="502.663" transform="rotate(-0 391.95909 502.663)">0</text>
     </g>
    </g>
    <g id="xtick_15">
     <g id="line2d_72">
      <path d="M 450.926481 488.505187 
L 450.926481 294.465188 
" clip-path="url(#pced86f2d4e)" style="fill: none; stroke: #b0b0b0; stroke-opacity: 0.18; stroke-width: 0.6; stroke-linecap: square"/>
     </g>
     <g id="line2d_73">
      <g>
       <use xlink:href="#mf74ee5fd61" x="450.926481" y="488.505187" style="stroke: #000000; stroke-width: 0.8"/>
      </g>
     </g>
     <g id="text_34">
      <text style="font-size: 10px; font-family: 'Arial'; text-anchor: middle" x="450.926481" y="502.663" transform="rotate(-0 450.926481 502.663)">4</text>
     </g>
    </g>
    <g id="xtick_16">
     <g id="line2d_74">
      <path d="M 509.893872 488.505187 
L 509.893872 294.465188 
" clip-path="url(#pced86f2d4e)" style="fill: none; stroke: #b0b0b0; stroke-opacity: 0.18; stroke-width: 0.6; stroke-linecap: square"/>
     </g>
     <g id="line2d_75">
      <g>
       <use xlink:href="#mf74ee5fd61" x="509.893872" y="488.505187" style="stroke: #000000; stroke-width: 0.8"/>
      </g>
     </g>
     <g id="text_35">
      <text style="font-size: 10px; font-family: 'Arial'; text-anchor: middle" x="509.893872" y="502.663" transform="rotate(-0 509.893872 502.663)">8</text>
     </g>
    </g>
    <g id="xtick_17">
     <g id="line2d_76">
      <path d="M 568.861264 488.505187 
L 568.861264 294.465188 
" clip-path="url(#pced86f2d4e)" style="fill: none; stroke: #b0b0b0; stroke-opacity: 0.18; stroke-width: 0.6; stroke-linecap: square"/>
     </g>
     <g id="line2d_77">
      <g>
       <use xlink:href="#mf74ee5fd61" x="568.861264" y="488.505187" style="stroke: #000000; stroke-width: 0.8"/>
      </g>
     </g>
     <g id="text_36">
      <text style="font-size: 10px; font-family: 'Arial'; text-anchor: middle" x="568.861264" y="502.663" transform="rotate(-0 568.861264 502.663)">12</text>
     </g>
    </g>
    <g id="xtick_18">
     <g id="line2d_78">
      <path d="M 627.828655 488.505187 
L 627.828655 294.465188 
" clip-path="url(#pced86f2d4e)" style="fill: none; stroke: #b0b0b0; stroke-opacity: 0.18; stroke-width: 0.6; stroke-linecap: square"/>
     </g>
     <g id="line2d_79">
      <g>
       <use xlink:href="#mf74ee5fd61" x="627.828655" y="488.505187" style="stroke: #000000; stroke-width: 0.8"/>
      </g>
     </g>
     <g id="text_37">
      <text style="font-size: 10px; font-family: 'Arial'; text-anchor: middle" x="627.828655" y="502.663" transform="rotate(-0 627.828655 502.663)">16</text>
     </g>
    </g>
    <g id="xtick_19">
     <g id="line2d_80">
      <path d="M 686.796046 488.505187 
L 686.796046 294.465188 
" clip-path="url(#pced86f2d4e)" style="fill: none; stroke: #b0b0b0; stroke-opacity: 0.18; stroke-width: 0.6; stroke-linecap: square"/>
     </g>
     <g id="line2d_81">
      <g>
       <use xlink:href="#mf74ee5fd61" x="686.796046" y="488.505187" style="stroke: #000000; stroke-width: 0.8"/>
      </g>
     </g>
     <g id="text_38">
      <text style="font-size: 10px; font-family: 'Arial'; text-anchor: middle" x="686.796046" y="502.663" transform="rotate(-0 686.796046 502.663)">20</text>
     </g>
    </g>
    <g id="xtick_20">
     <g id="line2d_82">
      <path d="M 745.763438 488.505187 
L 745.763438 294.465188 
" clip-path="url(#pced86f2d4e)" style="fill: none; stroke: #b0b0b0; stroke-opacity: 0.18; stroke-width: 0.6; stroke-linecap: square"/>
     </g>
     <g id="line2d_83">
      <g>
       <use xlink:href="#mf74ee5fd61" x="745.763438" y="488.505187" style="stroke: #000000; stroke-width: 0.8"/>
      </g>
     </g>
     <g id="text_39">
      <text style="font-size: 10px; font-family: 'Arial'; text-anchor: middle" x="745.763438" y="502.663" transform="rotate(-0 745.763438 502.663)">24</text>
     </g>
    </g>
    <g id="text_40">
     <text style="font-size: 11px; font-family: 'Arial'; text-anchor: middle" x="568.861264" y="516.524094" transform="rotate(-0 568.861264 516.524094)">Clock hour</text>
    </g>
   </g>
   <g id="matplotlib.axis_8">
    <g id="ytick_16">
     <g id="line2d_84">
      <path d="M 391.95909 487.781883 
L 745.763438 487.781883 
" clip-path="url(#pced86f2d4e)" style="fill: none; stroke: #b0b0b0; stroke-opacity: 0.18; stroke-width: 0.6; stroke-linecap: square"/>
     </g>
     <g id="line2d_85">
      <g>
       <use xlink:href="#m53c8abf545" x="391.95909" y="487.781883" style="stroke: #000000; stroke-width: 0.8"/>
      </g>
     </g>
     <g id="text_41">
      <text style="font-size: 10px; font-family: 'Arial'; text-anchor: end" x="384.95909" y="491.360789" transform="rotate(-0 384.95909 491.360789)">−1.0</text>
     </g>
    </g>
    <g id="ytick_17">
     <g id="line2d_86">
      <path d="M 391.95909 460.353527 
L 745.763438 460.353527 
" clip-path="url(#pced86f2d4e)" style="fill: none; stroke: #b0b0b0; stroke-opacity: 0.18; stroke-width: 0.6; stroke-linecap: square"/>
     </g>
     <g id="line2d_87">
      <g>
       <use xlink:href="#m53c8abf545" x="391.95909" y="460.353527" style="stroke: #000000; stroke-width: 0.8"/>
      </g>
     </g>
     <g id="text_42">
      <text style="font-size: 10px; font-family: 'Arial'; text-anchor: end" x="384.95909" y="463.932433" transform="rotate(-0 384.95909 463.932433)">−0.5</text>
     </g>
    </g>
    <g id="ytick_18">
     <g id="line2d_88">
      <path d="M 391.95909 432.92517 
L 745.763438 432.92517 
" clip-path="url(#pced86f2d4e)" style="fill: none; stroke: #b0b0b0; stroke-opacity: 0.18; stroke-width: 0.6; stroke-linecap: square"/>
     </g>
     <g id="line2d_89">
      <g>
       <use xlink:href="#m53c8abf545" x="391.95909" y="432.92517" style="stroke: #000000; stroke-width: 0.8"/>
      </g>
     </g>
     <g id="text_43">
      <text style="font-size: 10px; font-family: 'Arial'; text-anchor: end" x="384.95909" y="436.504077" transform="rotate(-0 384.95909 436.504077)">0.0</text>
     </g>
    </g>
    <g id="ytick_19">
     <g id="line2d_90">
      <path d="M 391.95909 405.496814 
L 745.763438 405.496814 
" clip-path="url(#pced86f2d4e)" style="fill: none; stroke: #b0b0b0; stroke-opacity: 0.18; stroke-width: 0.6; stroke-linecap: square"/>
     </g>
     <g id="line2d_91">
      <g>
       <use xlink:href="#m53c8abf545" x="391.95909" y="405.496814" style="stroke: #000000; stroke-width: 0.8"/>
      </g>
     </g>
     <g id="text_44">
      <text style="font-size: 10px; font-family: 'Arial'; text-anchor: end" x="384.95909" y="409.07572" transform="rotate(-0 384.95909 409.07572)">0.5</text>
     </g>
    </g>
    <g id="ytick_20">
     <g id="line2d_92">
      <path d="M 391.95909 378.068458 
L 745.763438 378.068458 
" clip-path="url(#pced86f2d4e)" style="fill: none; stroke: #b0b0b0; stroke-opacity: 0.18; stroke-width: 0.6; stroke-linecap: square"/>
     </g>
     <g id="line2d_93">
      <g>
       <use xlink:href="#m53c8abf545" x="391.95909" y="378.068458" style="stroke: #000000; stroke-width: 0.8"/>
      </g>
     </g>
     <g id="text_45">
      <text style="font-size: 10px; font-family: 'Arial'; text-anchor: end" x="384.95909" y="381.647364" transform="rotate(-0 384.95909 381.647364)">1.0</text>
     </g>
    </g>
    <g id="ytick_21">
     <g id="line2d_94">
      <path d="M 391.95909 350.640102 
L 745.763438 350.640102 
" clip-path="url(#pced86f2d4e)" style="fill: none; stroke: #b0b0b0; stroke-opacity: 0.18; stroke-width: 0.6; stroke-linecap: square"/>
     </g>
     <g id="line2d_95">
      <g>
       <use xlink:href="#m53c8abf545" x="391.95909" y="350.640102" style="stroke: #000000; stroke-width: 0.8"/>
      </g>
     </g>
     <g id="text_46">
      <text style="font-size: 10px; font-family: 'Arial'; text-anchor: end" x="384.95909" y="354.219008" transform="rotate(-0 384.95909 354.219008)">1.5</text>
     </g>
    </g>
    <g id="ytick_22">
     <g id="line2d_96">
      <path d="M 391.95909 323.211745 
L 745.763438 323.211745 
" clip-path="url(#pced86f2d4e)" style="fill: none; stroke: #b0b0b0; stroke-opacity: 0.18; stroke-width: 0.6; stroke-linecap: square"/>
     </g>
     <g id="line2d_97">
      <g>
       <use xlink:href="#m53c8abf545" x="391.95909" y="323.211745" style="stroke: #000000; stroke-width: 0.8"/>
      </g>
     </g>
     <g id="text_47">
      <text style="font-size: 10px; font-family: 'Arial'; text-anchor: end" x="384.95909" y="326.790652" transform="rotate(-0 384.95909 326.790652)">2.0</text>
     </g>
    </g>
    <g id="ytick_23">
     <g id="line2d_98">
      <path d="M 391.95909 295.783389 
L 745.763438 295.783389 
" clip-path="url(#pced86f2d4e)" style="fill: none; stroke: #b0b0b0; stroke-opacity: 0.18; stroke-width: 0.6; stroke-linecap: square"/>
     </g>
     <g id="line2d_99">
      <g>
       <use xlink:href="#m53c8abf545" x="391.95909" y="295.783389" style="stroke: #000000; stroke-width: 0.8"/>
      </g>
     </g>
     <g id="text_48">
      <text style="font-size: 10px; font-family: 'Arial'; text-anchor: end" x="384.95909" y="299.362295" transform="rotate(-0 384.95909 299.362295)">2.5</text>
     </g>
    </g>
    <g id="text_49">
     <text style="font-size: 11px; font-family: 'Arial'" transform="translate(347.268746 420.217531) rotate(-90)">Δ HR (bpm)</text>
     <text style="font-size: 11px; font-family: 'Arial'" transform="translate(359.032215 431.377375) rotate(-90)">cases − controls</text>
    </g>
   </g>
   <g id="line2d_100">
    <path d="M 391.95909 432.92517 
L 745.763438 432.92517 
" clip-path="url(#pced86f2d4e)" style="fill: none; stroke-dasharray: 3.33,1.44; stroke-dashoffset: 0; stroke: #7a7a7a; stroke-width: 0.9"/>
   </g>
   <g id="line2d_101">
    <path d="M 399.330014 375.69665 
L 414.071861 384.869332 
L 428.813709 395.003248 
L 443.555557 400.738673 
L 458.297405 405.334942 
L 473.039253 413.012091 
L 487.781101 411.764175 
L 502.522948 405.831898 
L 517.264796 378.36428 
L 532.006644 368.914279 
L 546.748492 369.845251 
L 561.49034 355.48804 
L 576.232188 354.120046 
L 590.974035 361.861682 
L 605.715883 369.091462 
L 620.457731 384.930383 
L 635.199579 422.190654 
L 649.941427 430.541682 
L 664.683274 419.209077 
L 679.425122 404.360653 
L 694.16697 390.73836 
L 708.908818 370.225024 
L 723.650666 363.85999 
L 738.392514 368.053017 
" clip-path="url(#pced86f2d4e)" style="fill: none; stroke: #6b5b95; stroke-width: 2; stroke-linecap: square"/>
   </g>
   <g id="patch_12">
    <path d="M 391.95909 488.505187 
L 391.95909 294.465187 
" style="fill: none; stroke: #222222; stroke-width: 0.9; stroke-linejoin: miter; stroke-linecap: square"/>
   </g>
   <g id="patch_13">
    <path d="M 391.95909 488.505187 
L 745.763438 488.505187 
" style="fill: none; stroke: #222222; stroke-width: 0.9; stroke-linejoin: miter; stroke-linecap: square"/>
   </g>
   <g id="text_50">
    <text style="font-weight: 700; font-size: 13.2px; font-family: 'Arial'; text-anchor: start; fill: #1f4e79" x="391.95909" y="288.465188" transform="rotate(-0 391.95909 288.465188)">D.  Hour-by-hour difference</text>
   </g>
  </g>
  <g id="legend_1">
   <g id="line2d_102">
    <path d="M 207.747031 546.4765 
L 216.747031 546.4765 
L 225.747031 546.4765 
" style="fill: none"/>
    <g>
     <use xlink:href="#m0e89a118a0" x="216.747031" y="546.4765" style="fill: #1f4e79; stroke: #ffffff"/>
    </g>
   </g>
   <g id="text_51">
    <text style="font-size: 10px; font-family: 'Arial'; text-anchor: start" x="233.747031" y="549.9765" transform="rotate(-0 233.747031 549.9765)">No-depression controls (n = 3,742)</text>
   </g>
   <g id="line2d_103">
    <path d="M 407.984531 546.4765 
L 416.984531 546.4765 
L 425.984531 546.4765 
" style="fill: none"/>
    <g>
     <use xlink:href="#m811c485dfc" x="416.984531" y="546.4765" style="fill: #e8635d; stroke: #ffffff"/>
    </g>
   </g>
   <g id="text_52">
    <text style="font-size: 10px; font-family: 'Arial'; text-anchor: start" x="433.984531" y="549.9765" transform="rotate(-0 433.984531 549.9765)">Incident depression (n = 463)</text>
   </g>
  </g>
 </g>
 <defs>
  <clipPath id="p05f9bab63e">
   <rect x="48.263437" y="22.809187" width="252.717391" height="194.04"/>
  </clipPath>
  <clipPath id="pd9f7b8641e">
   <rect x="391.95909" y="22.809187" width="353.804348" height="194.04"/>
  </clipPath>
  <clipPath id="p8ff8fb310a">
   <rect x="48.263437" y="294.465188" width="252.717391" height="194.04"/>
  </clipPath>
  <clipPath id="pced86f2d4e">
   <rect x="391.95909" y="294.465188" width="353.804348" height="194.04"/>
  </clipPath>
 </defs>
</svg>
