<?xml version="1.0" encoding="utf-8" standalone="no"?>
<!DOCTYPE svg PUBLIC "-//W3C//DTD SVG 1.1//EN"
  "http://www.w3.org/Graphics/SVG/1.1/DTD/svg11.dtd">
<svg xmlns:xlink="http://www.w3.org/1999/xlink" width="758.524375pt" height="563.281187pt" viewBox="0 0 758.524375 563.281187" xmlns="http://www.w3.org/2000/svg" version="1.1">
 <metadata>
  <rdf:RDF xmlns:dc="http://purl.org/dc/elements/1.1/" xmlns:cc="http://creativecommons.org/ns#" xmlns:rdf="http://www.w3.org/1999/02/22-rdf-syntax-ns#">
   <cc:Work>
    <dc:type rdf:resource="http://purl.org/dc/dcmitype/StillImage"/>
    <dc:date>2026-05-12T15:19:27.543140</dc:date>
    <dc:format>image/svg+xml</dc:format>
    <dc:creator>
     <cc:Agent>
      <dc:title>Matplotlib v3.10.8, https://matplotlib.org/</dc:title>
     </cc:Agent>
    </dc:creator>
   </cc:Work>
  </rdf:RDF>
 </metadata>
 <defs>
  <style type="text/css">*{stroke-linejoin: round; stroke-linecap: butt}</style>
 </defs>
 <g id="figure_1">
  <g id="patch_1">
   <path d="M 0 563.281187 
L 758.524375 563.281187 
L 758.524375 0 
L 0 0 
z
" style="fill: #ffffff"/>
  </g>
  <g id="axes_1">
   <g id="patch_2">
    <path d="M 48.263437 216.849188 
L 300.980829 216.849188 
L 300.980829 22.809187 
L 48.263437 22.809187 
z
" style="fill: #ffffff"/>
   </g>
   <g id="matplotlib.axis_1">
    <g id="xtick_1">
     <g id="line2d_1">
      <defs>
       <path id="m97de885c3d" d="M 0 0 
L 0 3.5 
" style="stroke: #000000; stroke-width: 0.8"/>
      </defs>
      <g>
       <use xlink:href="#m97de885c3d" x="77.273369" y="216.849188" style="stroke: #000000; stroke-width: 0.8"/>
      </g>
     </g>
     <g id="text_1">
      <text style="font-size: 10px; font-family: 'Arial'; text-anchor: middle" x="77.273369" y="231.007" transform="rotate(-0 77.273369 231.007)">Mesor</text>
     </g>
    </g>
    <g id="xtick_2">
     <g id="line2d_2">
      <g>
       <use xlink:href="#m97de885c3d" x="174.622133" y="216.849188" style="stroke: #000000; stroke-width: 0.8"/>
      </g>
     </g>
     <g id="text_2">
      <text style="font-size: 10px; font-family: 'Arial'; text-anchor: middle" x="174.622133" y="231.007" transform="rotate(-0 174.622133 231.007)">Amplitude</text>
     </g>
    </g>
    <g id="xtick_3">
     <g id="line2d_3">
      <g>
       <use xlink:href="#m97de885c3d" x="271.970897" y="216.849188" style="stroke: #000000; stroke-width: 0.8"/>
      </g>
     </g>
     <g id="text_3">
      <text style="font-size: 10px; font-family: 'Arial'; text-anchor: middle" x="271.970897" y="231.007" transform="rotate(-0 271.970897 231.007)">Acrophase</text>
     </g>
    </g>
   </g>
   <g id="matplotlib.axis_2">
    <g id="ytick_1">
     <g id="line2d_4">
      <path d="M 48.263437 180.650383 
L 300.980829 180.650383 
" clip-path="url(#pa16dff5244)" style="fill: none; stroke: #b0b0b0; stroke-opacity: 0.18; stroke-width: 0.6; stroke-linecap: square"/>
     </g>
     <g id="line2d_5">
      <defs>
       <path id="mb50a2316de" d="M 0 0 
L -3.5 0 
" style="stroke: #000000; stroke-width: 0.8"/>
      </defs>
      <g>
       <use xlink:href="#mb50a2316de" x="48.263437" y="180.650383" style="stroke: #000000; stroke-width: 0.8"/>
      </g>
     </g>
     <g id="text_4">
      <text style="font-size: 10px; font-family: 'Arial'; text-anchor: end" x="41.263437" y="184.22929" transform="rotate(-0 41.263437 184.22929)">−0.2</text>
     </g>
    </g>
    <g id="ytick_2">
     <g id="line2d_6">
      <path d="M 48.263437 141.707344 
L 300.980829 141.707344 
" clip-path="url(#pa16dff5244)" style="fill: none; stroke: #b0b0b0; stroke-opacity: 0.18; stroke-width: 0.6; stroke-linecap: square"/>
     </g>
     <g id="line2d_7">
      <g>
       <use xlink:href="#mb50a2316de" x="48.263437" y="141.707344" style="stroke: #000000; stroke-width: 0.8"/>
      </g>
     </g>
     <g id="text_5">
      <text style="font-size: 10px; font-family: 'Arial'; text-anchor: end" x="41.263437" y="145.28625" transform="rotate(-0 41.263437 145.28625)">0.0</text>
     </g>
    </g>
    <g id="ytick_3">
     <g id="line2d_8">
      <path d="M 48.263437 102.764304 
L 300.980829 102.764304 
" clip-path="url(#pa16dff5244)" style="fill: none; stroke: #b0b0b0; stroke-opacity: 0.18; stroke-width: 0.6; stroke-linecap: square"/>
     </g>
     <g id="line2d_9">
      <g>
       <use xlink:href="#mb50a2316de" x="48.263437" y="102.764304" style="stroke: #000000; stroke-width: 0.8"/>
      </g>
     </g>
     <g id="text_6">
      <text style="font-size: 10px; font-family: 'Arial'; text-anchor: end" x="41.263437" y="106.343211" transform="rotate(-0 41.263437 106.343211)">0.2</text>
     </g>
    </g>
    <g id="ytick_4">
     <g id="line2d_10">
      <path d="M 48.263437 63.821265 
L 300.980829 63.821265 
" clip-path="url(#pa16dff5244)" style="fill: none; stroke: #b0b0b0; stroke-opacity: 0.18; stroke-width: 0.6; stroke-linecap: square"/>
     </g>
     <g id="line2d_11">
      <g>
       <use xlink:href="#mb50a2316de" x="48.263437" y="63.821265" style="stroke: #000000; stroke-width: 0.8"/>
      </g>
     </g>
     <g id="text_7">
      <text style="font-size: 10px; font-family: 'Arial'; text-anchor: end" x="41.263437" y="67.400171" transform="rotate(-0 41.263437 67.400171)">0.4</text>
     </g>
    </g>
    <g id="ytick_5">
     <g id="line2d_12">
      <path d="M 48.263437 24.878226 
L 300.980829 24.878226 
" clip-path="url(#pa16dff5244)" style="fill: none; stroke: #b0b0b0; stroke-opacity: 0.18; stroke-width: 0.6; stroke-linecap: square"/>
     </g>
     <g id="line2d_13">
      <g>
       <use xlink:href="#mb50a2316de" x="48.263437" y="24.878226" style="stroke: #000000; stroke-width: 0.8"/>
      </g>
     </g>
     <g id="text_8">
      <text style="font-size: 10px; font-family: 'Arial'; text-anchor: end" x="41.263437" y="28.457132" transform="rotate(-0 41.263437 28.457132)">0.6</text>
     </g>
    </g>
    <g id="text_9">
     <text style="font-size: 11px; font-family: 'Arial'; text-anchor: middle" x="15.207656" y="119.829187" transform="rotate(-90 15.207656 119.829187)">Standardized score (z)</text>
    </g>
   </g>
   <g id="line2d_14">
    <path d="M 48.263437 141.707344 
L 300.980829 141.707344 
" clip-path="url(#pa16dff5244)" style="fill: none; stroke: #7a7a7a; stroke-width: 0.9; stroke-linecap: square"/>
   </g>
   <g id="LineCollection_1">
    <path d="M 59.750592 157.14381 
L 59.750592 140.453117 
" clip-path="url(#pa16dff5244)" style="fill: none; stroke: #1f4e79; stroke-width: 2"/>
    <path d="M 157.099356 147.260447 
L 157.099356 130.276876 
" clip-path="url(#pa16dff5244)" style="fill: none; stroke: #1f4e79; stroke-width: 2"/>
    <path d="M 254.44812 154.369676 
L 254.44812 137.813801 
" clip-path="url(#pa16dff5244)" style="fill: none; stroke: #1f4e79; stroke-width: 2"/>
   </g>
   <g id="line2d_15">
    <defs>
     <path id="mef4d8f26f0" d="M 4 0 
L -4 -0 
" style="stroke: #1f4e79"/>
    </defs>
    <g clip-path="url(#pa16dff5244)">
     <use xlink:href="#mef4d8f26f0" x="59.750592" y="157.14381" style="fill: #1f4e79; stroke: #1f4e79"/>
     <use xlink:href="#mef4d8f26f0" x="157.099356" y="147.260447" style="fill: #1f4e79; stroke: #1f4e79"/>
     <use xlink:href="#mef4d8f26f0" x="254.44812" y="154.369676" style="fill: #1f4e79; stroke: #1f4e79"/>
    </g>
   </g>
   <g id="line2d_16">
    <g clip-path="url(#pa16dff5244)">
     <use xlink:href="#mef4d8f26f0" x="59.750592" y="140.453117" style="fill: #1f4e79; stroke: #1f4e79"/>
     <use xlink:href="#mef4d8f26f0" x="157.099356" y="130.276876" style="fill: #1f4e79; stroke: #1f4e79"/>
     <use xlink:href="#mef4d8f26f0" x="254.44812" y="137.813801" style="fill: #1f4e79; stroke: #1f4e79"/>
    </g>
   </g>
   <g id="LineCollection_2">
    <path d="M 94.796147 114.849465 
L 94.796147 63.30149 
" clip-path="url(#pa16dff5244)" style="fill: none; stroke: #e8635d; stroke-width: 2"/>
    <path d="M 192.144911 187.293109 
L 192.144911 139.744686 
" clip-path="url(#pa16dff5244)" style="fill: none; stroke: #e8635d; stroke-width: 2"/>
    <path d="M 289.493675 136.623683 
L 289.493675 81.707102 
" clip-path="url(#pa16dff5244)" style="fill: none; stroke: #e8635d; stroke-width: 2"/>
   </g>
   <g id="line2d_17">
    <defs>
     <path id="m0ce0926ef0" d="M 4 0 
L -4 -0 
" style="stroke: #e8635d"/>
    </defs>
    <g clip-path="url(#pa16dff5244)">
     <use xlink:href="#m0ce0926ef0" x="94.796147" y="114.849465" style="fill: #e8635d; stroke: #e8635d"/>
     <use xlink:href="#m0ce0926ef0" x="192.144911" y="187.293109" style="fill: #e8635d; stroke: #e8635d"/>
     <use xlink:href="#m0ce0926ef0" x="289.493675" y="136.623683" style="fill: #e8635d; stroke: #e8635d"/>
    </g>
   </g>
   <g id="line2d_18">
    <g clip-path="url(#pa16dff5244)">
     <use xlink:href="#m0ce0926ef0" x="94.796147" y="63.30149" style="fill: #e8635d; stroke: #e8635d"/>
     <use xlink:href="#m0ce0926ef0" x="192.144911" y="139.744686" style="fill: #e8635d; stroke: #e8635d"/>
     <use xlink:href="#m0ce0926ef0" x="289.493675" y="81.707102" style="fill: #e8635d; stroke: #e8635d"/>
    </g>
   </g>
   <g id="line2d_19">
    <path d="M 59.750592 52.95269 
L 94.796147 52.95269 
" clip-path="url(#pa16dff5244)" style="fill: none; stroke: #222222; stroke-linecap: square"/>
   </g>
   <g id="line2d_20">
    <path d="M 157.099356 119.928076 
L 192.144911 119.928076 
" clip-path="url(#pa16dff5244)" style="fill: none; stroke: #222222; stroke-linecap: square"/>
   </g>
   <g id="line2d_21">
    <path d="M 254.44812 71.358302 
L 289.493675 71.358302 
" clip-path="url(#pa16dff5244)" style="fill: none; stroke: #222222; stroke-linecap: square"/>
   </g>
   <g id="line2d_22">
    <defs>
     <path id="mf243a26d3f" d="M 0 5 
C 1.326016 5 2.597899 4.473168 3.535534 3.535534 
C 4.473168 2.597899 5 1.326016 5 0 
C 5 -1.326016 4.473168 -2.597899 3.535534 -3.535534 
C 2.597899 -4.473168 1.326016 -5 0 -5 
C -1.326016 -5 -2.597899 -4.473168 -3.535534 -3.535534 
C -4.473168 -2.597899 -5 -1.326016 -5 0 
C -5 1.326016 -4.473168 2.597899 -3.535534 3.535534 
C -2.597899 4.473168 -1.326016 5 0 5 
z
" style="stroke: #ffffff"/>
    </defs>
    <g clip-path="url(#pa16dff5244)">
     <use xlink:href="#mf243a26d3f" x="59.750592" y="148.798464" style="fill: #1f4e79; stroke: #ffffff"/>
     <use xlink:href="#mf243a26d3f" x="157.099356" y="138.768662" style="fill: #1f4e79; stroke: #ffffff"/>
     <use xlink:href="#mf243a26d3f" x="254.44812" y="146.091739" style="fill: #1f4e79; stroke: #ffffff"/>
    </g>
   </g>
   <g id="line2d_23">
    <defs>
     <path id="mbcc9fffe38" d="M 0 5 
C 1.326016 5 2.597899 4.473168 3.535534 3.535534 
C 4.473168 2.597899 5 1.326016 5 0 
C 5 -1.326016 4.473168 -2.597899 3.535534 -3.535534 
C 2.597899 -4.473168 1.326016 -5 0 -5 
C -1.326016 -5 -2.597899 -4.473168 -3.535534 -3.535534 
C -4.473168 -2.597899 -5 -1.326016 -5 0 
C -5 1.326016 -4.473168 2.597899 -3.535534 3.535534 
C -2.597899 4.473168 -1.326016 5 0 5 
z
" style="stroke: #ffffff"/>
    </defs>
    <g clip-path="url(#pa16dff5244)">
     <use xlink:href="#mbcc9fffe38" x="94.796147" y="89.075478" style="fill: #e8635d; stroke: #ffffff"/>
     <use xlink:href="#mbcc9fffe38" x="192.144911" y="163.518897" style="fill: #e8635d; stroke: #ffffff"/>
     <use xlink:href="#mbcc9fffe38" x="289.493675" y="109.165392" style="fill: #e8635d; stroke: #ffffff"/>
    </g>
   </g>
   <g id="patch_3">
    <path d="M 48.263437 216.849188 
L 48.263437 22.809187 
" style="fill: none; stroke: #222222; stroke-width: 0.9; stroke-linejoin: miter; stroke-linecap: square"/>
   </g>
   <g id="patch_4">
    <path d="M 48.263438 216.849188 
L 300.980829 216.849188 
" style="fill: none; stroke: #222222; stroke-width: 0.9; stroke-linejoin: miter; stroke-linecap: square"/>
   </g>
   <g id="text_10">
    <text style="font-weight: 700; font-size: 14px; font-family: 'Arial'; text-anchor: middle" x="77.273369" y="48.896278" transform="rotate(-0 77.273369 48.896278)">***</text>
   </g>
   <g id="text_11">
    <text style="font-weight: 700; font-size: 14px; font-family: 'Arial'; text-anchor: middle" x="174.622133" y="115.871663" transform="rotate(-0 174.622133 115.871663)">**</text>
   </g>
   <g id="text_12">
    <text style="font-weight: 700; font-size: 14px; font-family: 'Arial'; text-anchor: middle" x="271.970897" y="67.30189" transform="rotate(-0 271.970897 67.30189)">*</text>
   </g>
   <g id="text_13">
    <text style="font-size: 9px; font-family: 'Arial'; text-anchor: end; fill: #555555" x="298.453655" y="35.072419" transform="rotate(-0 298.453655 35.072419)">n = 2,274; cases = 270</text>
   </g>
   <g id="text_14">
    <text style="font-weight: 700; font-size: 13.2px; font-family: 'Arial'; text-anchor: start; fill: #1f4e79" x="48.263437" y="16.809187" transform="rotate(-0 48.263437 16.809187)">A.  Between-person cosinor features</text>
   </g>
  </g>
  <g id="axes_2">
   <g id="patch_5">
    <path d="M 391.95909 216.849188 
L 745.763438 216.849188 
L 745.763438 22.809187 
L 391.95909 22.809187 
z
" style="fill: #ffffff"/>
   </g>
   <g id="FillBetweenPolyCollection_1">
    <defs>
     <path id="m82e055a204" d="M 399.330014 -380.136052 
L 399.330014 -375.169979 
L 414.071861 -364.412098 
L 428.813709 -358.147401 
L 443.555557 -355.252 
L 458.297405 -355.542086 
L 473.039253 -360.088838 
L 487.781101 -377.509379 
L 502.522948 -424.318654 
L 517.264796 -456.569375 
L 532.006644 -466.713092 
L 546.748492 -476.427557 
L 561.49034 -489.196875 
L 576.232188 -504.789492 
L 590.974035 -504.255489 
L 605.715883 -503.270424 
L 620.457731 -505.068572 
L 635.199579 -498.761287 
L 649.941427 -501.420752 
L 664.683274 -504.839872 
L 679.425122 -501.328482 
L 694.16697 -483.66901 
L 708.908818 -451.868309 
L 723.650666 -417.437801 
L 738.392514 -392.484719 
L 738.392514 -397.712102 
L 738.392514 -397.712102 
L 723.650666 -422.889509 
L 708.908818 -457.360402 
L 694.16697 -488.98365 
L 679.425122 -506.660474 
L 664.683274 -510.176855 
L 649.941427 -506.782385 
L 635.199579 -504.160982 
L 620.457731 -510.480257 
L 605.715883 -508.647391 
L 590.974035 -509.579903 
L 576.232188 -510.200462 
L 561.49034 -494.870891 
L 546.748492 -482.116019 
L 532.006644 -472.427146 
L 517.264796 -462.555105 
L 502.522948 -430.431454 
L 487.781101 -382.499503 
L 473.039253 -364.606075 
L 458.297405 -359.953615 
L 443.555557 -359.676719 
L 428.813709 -362.673426 
L 414.071861 -369.119694 
L 399.330014 -380.136052 
z
"/>
    </defs>
    <g clip-path="url(#pca9ce2b5be)">
     <use xlink:href="#m82e055a204" x="0" y="563.281187" style="fill: #1f4e79; fill-opacity: 0.18"/>
    </g>
   </g>
   <g id="FillBetweenPolyCollection_2">
    <defs>
     <path id="ma178a734db" d="M 399.330014 -410.515106 
L 399.330014 -394.381639 
L 414.071861 -383.354373 
L 428.813709 -375.920977 
L 443.555557 -371.146985 
L 458.297405 -368.89931 
L 473.039253 -371.401261 
L 487.781101 -384.615006 
L 502.522948 -433.046333 
L 517.264796 -465.688272 
L 532.006644 -471.463576 
L 546.748492 -478.022846 
L 561.49034 -496.462782 
L 576.232188 -515.026503 
L 590.974035 -513.051787 
L 605.715883 -512.045203 
L 620.457731 -513.862539 
L 635.199579 -507.322977 
L 649.941427 -508.632158 
L 664.683274 -509.610642 
L 679.425122 -504.500769 
L 694.16697 -490.948907 
L 708.908818 -465.448348 
L 723.650666 -432.371085 
L 738.392514 -411.885605 
L 738.392514 -428.234355 
L 738.392514 -428.234355 
L 723.650666 -449.264114 
L 708.908818 -482.460939 
L 694.16697 -507.51731 
L 679.425122 -520.841127 
L 664.683274 -525.567455 
L 649.941427 -525.030766 
L 635.199579 -523.83122 
L 620.457731 -529.711102 
L 605.715883 -527.90196 
L 590.974035 -529.130877 
L 576.232188 -531.652 
L 561.49034 -513.379647 
L 546.748492 -494.586086 
L 532.006644 -488.477522 
L 517.264796 -484.068881 
L 502.522948 -450.490339 
L 487.781101 -399.097212 
L 473.039253 -385.187735 
L 458.297405 -382.320593 
L 443.555557 -384.916501 
L 428.813709 -390.48897 
L 414.071861 -398.293171 
L 399.330014 -410.515106 
z
"/>
    </defs>
    <g clip-path="url(#pca9ce2b5be)">
     <use xlink:href="#ma178a734db" x="0" y="563.281187" style="fill: #e8635d; fill-opacity: 0.22"/>
    </g>
   </g>
   <g id="matplotlib.axis_3">
    <g id="xtick_4">
     <g id="line2d_24">
      <path d="M 391.95909 216.849188 
L 391.95909 22.809187 
" clip-path="url(#pca9ce2b5be)" style="fill: none; stroke: #b0b0b0; stroke-opacity: 0.18; stroke-width: 0.6; stroke-linecap: square"/>
     </g>
     <g id="line2d_25">
      <g>
       <use xlink:href="#m97de885c3d" x="391.95909" y="216.849188" style="stroke: #000000; stroke-width: 0.8"/>
      </g>
     </g>
    </g>
    <g id="xtick_5">
     <g id="line2d_26">
      <path d="M 450.926481 216.849188 
L 450.926481 22.809187 
" clip-path="url(#pca9ce2b5be)" style="fill: none; stroke: #b0b0b0; stroke-opacity: 0.18; stroke-width: 0.6; stroke-linecap: square"/>
     </g>
     <g id="line2d_27">
      <g>
       <use xlink:href="#m97de885c3d" x="450.926481" y="216.849188" style="stroke: #000000; stroke-width: 0.8"/>
      </g>
     </g>
    </g>
    <g id="xtick_6">
     <g id="line2d_28">
      <path d="M 509.893872 216.849188 
L 509.893872 22.809187 
" clip-path="url(#pca9ce2b5be)" style="fill: none; stroke: #b0b0b0; stroke-opacity: 0.18; stroke-width: 0.6; stroke-linecap: square"/>
     </g>
     <g id="line2d_29">
      <g>
       <use xlink:href="#m97de885c3d" x="509.893872" y="216.849188" style="stroke: #000000; stroke-width: 0.8"/>
      </g>
     </g>
    </g>
    <g id="xtick_7">
     <g id="line2d_30">
      <path d="M 568.861264 216.849188 
L 568.861264 22.809187 
" clip-path="url(#pca9ce2b5be)" style="fill: none; stroke: #b0b0b0; stroke-opacity: 0.18; stroke-width: 0.6; stroke-linecap: square"/>
     </g>
     <g id="line2d_31">
      <g>
       <use xlink:href="#m97de885c3d" x="568.861264" y="216.849188" style="stroke: #000000; stroke-width: 0.8"/>
      </g>
     </g>
    </g>
    <g id="xtick_8">
     <g id="line2d_32">
      <path d="M 627.828655 216.849188 
L 627.828655 22.809187 
" clip-path="url(#pca9ce2b5be)" style="fill: none; stroke: #b0b0b0; stroke-opacity: 0.18; stroke-width: 0.6; stroke-linecap: square"/>
     </g>
     <g id="line2d_33">
      <g>
       <use xlink:href="#m97de885c3d" x="627.828655" y="216.849188" style="stroke: #000000; stroke-width: 0.8"/>
      </g>
     </g>
    </g>
    <g id="xtick_9">
     <g id="line2d_34">
      <path d="M 686.796046 216.849188 
L 686.796046 22.809187 
" clip-path="url(#pca9ce2b5be)" style="fill: none; stroke: #b0b0b0; stroke-opacity: 0.18; stroke-width: 0.6; stroke-linecap: square"/>
     </g>
     <g id="line2d_35">
      <g>
       <use xlink:href="#m97de885c3d" x="686.796046" y="216.849188" style="stroke: #000000; stroke-width: 0.8"/>
      </g>
     </g>
    </g>
    <g id="xtick_10">
     <g id="line2d_36">
      <path d="M 745.763438 216.849188 
L 745.763438 22.809187 
" clip-path="url(#pca9ce2b5be)" style="fill: none; stroke: #b0b0b0; stroke-opacity: 0.18; stroke-width: 0.6; stroke-linecap: square"/>
     </g>
     <g id="line2d_37">
      <g>
       <use xlink:href="#m97de885c3d" x="745.763438" y="216.849188" style="stroke: #000000; stroke-width: 0.8"/>
      </g>
     </g>
    </g>
   </g>
   <g id="matplotlib.axis_4">
    <g id="ytick_6">
     <g id="line2d_38">
      <path d="M 391.95909 195.309195 
L 745.763438 195.309195 
" clip-path="url(#pca9ce2b5be)" style="fill: none; stroke: #b0b0b0; stroke-opacity: 0.18; stroke-width: 0.6; stroke-linecap: square"/>
     </g>
     <g id="line2d_39">
      <g>
       <use xlink:href="#mb50a2316de" x="391.95909" y="195.309195" style="stroke: #000000; stroke-width: 0.8"/>
      </g>
     </g>
     <g id="text_15">
      <text style="font-size: 10px; font-family: 'Arial'; text-anchor: end" x="384.95909" y="198.888101" transform="rotate(-0 384.95909 198.888101)">70</text>
     </g>
    </g>
    <g id="ytick_7">
     <g id="line2d_40">
      <path d="M 391.95909 161.776693 
L 745.763438 161.776693 
" clip-path="url(#pca9ce2b5be)" style="fill: none; stroke: #b0b0b0; stroke-opacity: 0.18; stroke-width: 0.6; stroke-linecap: square"/>
     </g>
     <g id="line2d_41">
      <g>
       <use xlink:href="#mb50a2316de" x="391.95909" y="161.776693" style="stroke: #000000; stroke-width: 0.8"/>
      </g>
     </g>
     <g id="text_16">
      <text style="font-size: 10px; font-family: 'Arial'; text-anchor: end" x="384.95909" y="165.355599" transform="rotate(-0 384.95909 165.355599)">75</text>
     </g>
    </g>
    <g id="ytick_8">
     <g id="line2d_42">
      <path d="M 391.95909 128.244191 
L 745.763438 128.244191 
" clip-path="url(#pca9ce2b5be)" style="fill: none; stroke: #b0b0b0; stroke-opacity: 0.18; stroke-width: 0.6; stroke-linecap: square"/>
     </g>
     <g id="line2d_43">
      <g>
       <use xlink:href="#mb50a2316de" x="391.95909" y="128.244191" style="stroke: #000000; stroke-width: 0.8"/>
      </g>
     </g>
     <g id="text_17">
      <text style="font-size: 10px; font-family: 'Arial'; text-anchor: end" x="384.95909" y="131.823097" transform="rotate(-0 384.95909 131.823097)">80</text>
     </g>
    </g>
    <g id="ytick_9">
     <g id="line2d_44">
      <path d="M 391.95909 94.711689 
L 745.763438 94.711689 
" clip-path="url(#pca9ce2b5be)" style="fill: none; stroke: #b0b0b0; stroke-opacity: 0.18; stroke-width: 0.6; stroke-linecap: square"/>
     </g>
     <g id="line2d_45">
      <g>
       <use xlink:href="#mb50a2316de" x="391.95909" y="94.711689" style="stroke: #000000; stroke-width: 0.8"/>
      </g>
     </g>
     <g id="text_18">
      <text style="font-size: 10px; font-family: 'Arial'; text-anchor: end" x="384.95909" y="98.290595" transform="rotate(-0 384.95909 98.290595)">85</text>
     </g>
    </g>
    <g id="ytick_10">
     <g id="line2d_46">
      <path d="M 391.95909 61.179187 
L 745.763438 61.179187 
" clip-path="url(#pca9ce2b5be)" style="fill: none; stroke: #b0b0b0; stroke-opacity: 0.18; stroke-width: 0.6; stroke-linecap: square"/>
     </g>
     <g id="line2d_47">
      <g>
       <use xlink:href="#mb50a2316de" x="391.95909" y="61.179187" style="stroke: #000000; stroke-width: 0.8"/>
      </g>
     </g>
     <g id="text_19">
      <text style="font-size: 10px; font-family: 'Arial'; text-anchor: end" x="384.95909" y="64.758094" transform="rotate(-0 384.95909 64.758094)">90</text>
     </g>
    </g>
    <g id="ytick_11">
     <g id="line2d_48">
      <path d="M 391.95909 27.646685 
L 745.763438 27.646685 
" clip-path="url(#pca9ce2b5be)" style="fill: none; stroke: #b0b0b0; stroke-opacity: 0.18; stroke-width: 0.6; stroke-linecap: square"/>
     </g>
     <g id="line2d_49">
      <g>
       <use xlink:href="#mb50a2316de" x="391.95909" y="27.646685" style="stroke: #000000; stroke-width: 0.8"/>
      </g>
     </g>
     <g id="text_20">
      <text style="font-size: 10px; font-family: 'Arial'; text-anchor: end" x="384.95909" y="31.225592" transform="rotate(-0 384.95909 31.225592)">95</text>
     </g>
    </g>
    <g id="text_21">
     <text style="font-size: 11px; font-family: 'Arial'; text-anchor: middle" x="367.522058" y="119.829187" transform="rotate(-90 367.522058 119.829187)">Heart rate (bpm)</text>
    </g>
   </g>
   <g id="line2d_50">
    <path d="M 399.330014 185.628172 
L 414.071861 196.515291 
L 428.813709 202.870774 
L 443.555557 205.816828 
L 458.297405 205.533337 
L 473.039253 200.933731 
L 487.781101 183.276747 
L 502.522948 135.906133 
L 517.264796 103.718948 
L 532.006644 93.711069 
L 546.748492 84.0094 
L 561.49034 71.247304 
L 576.232188 55.786211 
L 590.974035 56.363492 
L 605.715883 57.32228 
L 620.457731 55.506773 
L 635.199579 61.820053 
L 649.941427 59.179619 
L 664.683274 55.772824 
L 679.425122 59.286709 
L 694.16697 76.954857 
L 708.908818 108.666832 
L 723.650666 143.117532 
L 738.392514 168.182777 
" clip-path="url(#pca9ce2b5be)" style="fill: none; stroke: #1f4e79; stroke-width: 2.2; stroke-linecap: square"/>
   </g>
   <g id="line2d_51">
    <path d="M 399.330014 160.832815 
L 414.071861 172.457416 
L 428.813709 180.076214 
L 443.555557 185.249444 
L 458.297405 187.671236 
L 473.039253 184.98669 
L 487.781101 171.425078 
L 502.522948 121.512852 
L 517.264796 88.402611 
L 532.006644 83.310639 
L 546.748492 76.976721 
L 561.49034 58.359973 
L 576.232188 39.941936 
L 590.974035 42.189856 
L 605.715883 43.307606 
L 620.457731 41.494367 
L 635.199579 47.704089 
L 649.941427 46.449725 
L 664.683274 45.692139 
L 679.425122 50.610239 
L 694.16697 64.048079 
L 708.908818 89.326544 
L 723.650666 122.463588 
L 738.392514 143.221208 
" clip-path="url(#pca9ce2b5be)" style="fill: none; stroke: #e8635d; stroke-width: 2.2; stroke-linecap: square"/>
   </g>
   <g id="patch_6">
    <path d="M 391.95909 216.849187 
L 391.95909 22.809187 
" style="fill: none; stroke: #222222; stroke-width: 0.9; stroke-linejoin: miter; stroke-linecap: square"/>
   </g>
   <g id="patch_7">
    <path d="M 391.95909 216.849188 
L 745.763438 216.849188 
" style="fill: none; stroke: #222222; stroke-width: 0.9; stroke-linejoin: miter; stroke-linecap: square"/>
   </g>
   <g id="text_22">
    <text style="font-weight: 700; font-size: 13.2px; font-family: 'Arial'; text-anchor: start; fill: #1f4e79" x="391.95909" y="16.809187" transform="rotate(-0 391.95909 16.809187)">B.  24-hour HR rhythm at Wave 2</text>
   </g>
  </g>
  <g id="axes_3">
   <g id="patch_8">
    <path d="M 48.263437 488.505187 
L 300.980829 488.505187 
L 300.980829 294.465188 
L 48.263437 294.465188 
z
" style="fill: #ffffff"/>
   </g>
   <g id="matplotlib.axis_5">
    <g id="xtick_11">
     <g id="line2d_52">
      <g>
       <use xlink:href="#m97de885c3d" x="77.273369" y="488.505187" style="stroke: #000000; stroke-width: 0.8"/>
      </g>
     </g>
     <g id="text_23">
      <text style="font-size: 10px; font-family: 'Arial'" transform="translate(58.6554 502.784875)">SD daily</text>
      <text style="font-size: 10px; font-family: 'Arial'" transform="translate(63.382744 513.478938)">mesor</text>
     </g>
    </g>
    <g id="xtick_12">
     <g id="line2d_53">
      <g>
       <use xlink:href="#m97de885c3d" x="174.622133" y="488.505187" style="stroke: #000000; stroke-width: 0.8"/>
      </g>
     </g>
     <g id="text_24">
      <text style="font-size: 10px; font-family: 'Arial'" transform="translate(156.004164 502.784875)">SD daily</text>
      <text style="font-size: 10px; font-family: 'Arial'" transform="translate(152.944008 513.478938)">amplitude</text>
     </g>
    </g>
    <g id="xtick_13">
     <g id="line2d_54">
      <g>
       <use xlink:href="#m97de885c3d" x="271.970897" y="488.505187" style="stroke: #000000; stroke-width: 0.8"/>
      </g>
     </g>
     <g id="text_25">
      <text style="font-size: 10px; font-family: 'Arial'" transform="translate(253.352928 502.784875)">SD daily</text>
      <text style="font-size: 10px; font-family: 'Arial'" transform="translate(248.623241 513.478938)">acrophase</text>
     </g>
    </g>
   </g>
   <g id="matplotlib.axis_6">
    <g id="ytick_12">
     <g id="line2d_55">
      <path d="M 48.263437 466.318703 
L 300.980829 466.318703 
" clip-path="url(#pf91a485829)" style="fill: none; stroke: #b0b0b0; stroke-opacity: 0.18; stroke-width: 0.6; stroke-linecap: square"/>
     </g>
     <g id="line2d_56">
      <g>
       <use xlink:href="#mb50a2316de" x="48.263437" y="466.318703" style="stroke: #000000; stroke-width: 0.8"/>
      </g>
     </g>
     <g id="text_26">
      <text style="font-size: 10px; font-family: 'Arial'; text-anchor: end" x="41.263437" y="469.89761" transform="rotate(-0 41.263437 469.89761)">−0.1</text>
     </g>
    </g>
    <g id="ytick_13">
     <g id="line2d_57">
      <path d="M 48.263437 437.410854 
L 300.980829 437.410854 
" clip-path="url(#pf91a485829)" style="fill: none; stroke: #b0b0b0; stroke-opacity: 0.18; stroke-width: 0.6; stroke-linecap: square"/>
     </g>
     <g id="line2d_58">
      <g>
       <use xlink:href="#mb50a2316de" x="48.263437" y="437.410854" style="stroke: #000000; stroke-width: 0.8"/>
      </g>
     </g>
     <g id="text_27">
      <text style="font-size: 10px; font-family: 'Arial'; text-anchor: end" x="41.263437" y="440.98976" transform="rotate(-0 41.263437 440.98976)">0.0</text>
     </g>
    </g>
    <g id="ytick_14">
     <g id="line2d_59">
      <path d="M 48.263437 408.503004 
L 300.980829 408.503004 
" clip-path="url(#pf91a485829)" style="fill: none; stroke: #b0b0b0; stroke-opacity: 0.18; stroke-width: 0.6; stroke-linecap: square"/>
     </g>
     <g id="line2d_60">
      <g>
       <use xlink:href="#mb50a2316de" x="48.263437" y="408.503004" style="stroke: #000000; stroke-width: 0.8"/>
      </g>
     </g>
     <g id="text_28">
      <text style="font-size: 10px; font-family: 'Arial'; text-anchor: end" x="41.263437" y="412.081911" transform="rotate(-0 41.263437 412.081911)">0.1</text>
     </g>
    </g>
    <g id="ytick_15">
     <g id="line2d_61">
      <path d="M 48.263437 379.595155 
L 300.980829 379.595155 
" clip-path="url(#pf91a485829)" style="fill: none; stroke: #b0b0b0; stroke-opacity: 0.18; stroke-width: 0.6; stroke-linecap: square"/>
     </g>
     <g id="line2d_62">
      <g>
       <use xlink:href="#mb50a2316de" x="48.263437" y="379.595155" style="stroke: #000000; stroke-width: 0.8"/>
      </g>
     </g>
     <g id="text_29">
      <text style="font-size: 10px; font-family: 'Arial'; text-anchor: end" x="41.263437" y="383.174061" transform="rotate(-0 41.263437 383.174061)">0.2</text>
     </g>
    </g>
    <g id="ytick_16">
     <g id="line2d_63">
      <path d="M 48.263437 350.687305 
L 300.980829 350.687305 
" clip-path="url(#pf91a485829)" style="fill: none; stroke: #b0b0b0; stroke-opacity: 0.18; stroke-width: 0.6; stroke-linecap: square"/>
     </g>
     <g id="line2d_64">
      <g>
       <use xlink:href="#mb50a2316de" x="48.263437" y="350.687305" style="stroke: #000000; stroke-width: 0.8"/>
      </g>
     </g>
     <g id="text_30">
      <text style="font-size: 10px; font-family: 'Arial'; text-anchor: end" x="41.263437" y="354.266211" transform="rotate(-0 41.263437 354.266211)">0.3</text>
     </g>
    </g>
    <g id="ytick_17">
     <g id="line2d_65">
      <path d="M 48.263437 321.779456 
L 300.980829 321.779456 
" clip-path="url(#pf91a485829)" style="fill: none; stroke: #b0b0b0; stroke-opacity: 0.18; stroke-width: 0.6; stroke-linecap: square"/>
     </g>
     <g id="line2d_66">
      <g>
       <use xlink:href="#mb50a2316de" x="48.263437" y="321.779456" style="stroke: #000000; stroke-width: 0.8"/>
      </g>
     </g>
     <g id="text_31">
      <text style="font-size: 10px; font-family: 'Arial'; text-anchor: end" x="41.263437" y="325.358362" transform="rotate(-0 41.263437 325.358362)">0.4</text>
     </g>
    </g>
    <g id="text_32">
     <text style="font-size: 11px; font-family: 'Arial'; text-anchor: middle" x="15.207656" y="391.485187" transform="rotate(-90 15.207656 391.485187)">Standardized score (z)</text>
    </g>
   </g>
   <g id="line2d_67">
    <path d="M 48.263437 437.410854 
L 300.980829 437.410854 
" clip-path="url(#pf91a485829)" style="fill: none; stroke: #7a7a7a; stroke-width: 0.9; stroke-linecap: square"/>
   </g>
   <g id="LineCollection_3">
    <path d="M 59.750592 456.446217 
L 59.750592 430.606661 
" clip-path="url(#pf91a485829)" style="fill: none; stroke: #1f4e79; stroke-width: 2"/>
    <path d="M 157.099356 453.240051 
L 157.099356 426.444922 
" clip-path="url(#pf91a485829)" style="fill: none; stroke: #1f4e79; stroke-width: 2"/>
    <path d="M 254.44812 457.723887 
L 254.44812 431.389184 
" clip-path="url(#pf91a485829)" style="fill: none; stroke: #1f4e79; stroke-width: 2"/>
   </g>
   <g id="line2d_68">
    <g clip-path="url(#pf91a485829)">
     <use xlink:href="#mef4d8f26f0" x="59.750592" y="456.446217" style="fill: #1f4e79; stroke: #1f4e79"/>
     <use xlink:href="#mef4d8f26f0" x="157.099356" y="453.240051" style="fill: #1f4e79; stroke: #1f4e79"/>
     <use xlink:href="#mef4d8f26f0" x="254.44812" y="457.723887" style="fill: #1f4e79; stroke: #1f4e79"/>
    </g>
   </g>
   <g id="line2d_69">
    <g clip-path="url(#pf91a485829)">
     <use xlink:href="#mef4d8f26f0" x="59.750592" y="430.606661" style="fill: #1f4e79; stroke: #1f4e79"/>
     <use xlink:href="#mef4d8f26f0" x="157.099356" y="426.444922" style="fill: #1f4e79; stroke: #1f4e79"/>
     <use xlink:href="#mef4d8f26f0" x="254.44812" y="431.389184" style="fill: #1f4e79; stroke: #1f4e79"/>
    </g>
   </g>
   <g id="LineCollection_4">
    <path d="M 94.796147 432.278085 
L 94.796147 341.760993 
" clip-path="url(#pf91a485829)" style="fill: none; stroke: #e8635d; stroke-width: 2"/>
    <path d="M 192.144911 452.489815 
L 192.144911 382.259469 
" clip-path="url(#pf91a485829)" style="fill: none; stroke: #e8635d; stroke-width: 2"/>
    <path d="M 289.493675 418.40563 
L 289.493675 338.657836 
" clip-path="url(#pf91a485829)" style="fill: none; stroke: #e8635d; stroke-width: 2"/>
   </g>
   <g id="line2d_70">
    <g clip-path="url(#pf91a485829)">
     <use xlink:href="#m0ce0926ef0" x="94.796147" y="432.278085" style="fill: #e8635d; stroke: #e8635d"/>
     <use xlink:href="#m0ce0926ef0" x="192.144911" y="452.489815" style="fill: #e8635d; stroke: #e8635d"/>
     <use xlink:href="#m0ce0926ef0" x="289.493675" y="418.40563" style="fill: #e8635d; stroke: #e8635d"/>
    </g>
   </g>
   <g id="line2d_71">
    <g clip-path="url(#pf91a485829)">
     <use xlink:href="#m0ce0926ef0" x="94.796147" y="341.760993" style="fill: #e8635d; stroke: #e8635d"/>
     <use xlink:href="#m0ce0926ef0" x="192.144911" y="382.259469" style="fill: #e8635d; stroke: #e8635d"/>
     <use xlink:href="#m0ce0926ef0" x="289.493675" y="338.657836" style="fill: #e8635d; stroke: #e8635d"/>
    </g>
   </g>
   <g id="line2d_72">
    <path d="M 59.750592 331.412193 
L 94.796147 331.412193 
" clip-path="url(#pf91a485829)" style="fill: none; stroke: #222222; stroke-linecap: square"/>
   </g>
   <g id="line2d_73">
    <path d="M 254.44812 328.309036 
L 289.493675 328.309036 
" clip-path="url(#pf91a485829)" style="fill: none; stroke: #222222; stroke-linecap: square"/>
   </g>
   <g id="line2d_74">
    <g clip-path="url(#pf91a485829)">
     <use xlink:href="#mf243a26d3f" x="59.750592" y="443.526439" style="fill: #1f4e79; stroke: #ffffff"/>
     <use xlink:href="#mf243a26d3f" x="157.099356" y="439.842486" style="fill: #1f4e79; stroke: #ffffff"/>
     <use xlink:href="#mf243a26d3f" x="254.44812" y="444.556535" style="fill: #1f4e79; stroke: #ffffff"/>
    </g>
   </g>
   <g id="line2d_75">
    <g clip-path="url(#pf91a485829)">
     <use xlink:href="#mbcc9fffe38" x="94.796147" y="387.019539" style="fill: #e8635d; stroke: #ffffff"/>
     <use xlink:href="#mbcc9fffe38" x="192.144911" y="417.374642" style="fill: #e8635d; stroke: #ffffff"/>
     <use xlink:href="#mbcc9fffe38" x="289.493675" y="378.531733" style="fill: #e8635d; stroke: #ffffff"/>
    </g>
   </g>
   <g id="patch_9">
    <path d="M 48.263437 488.505188 
L 48.263437 294.465188 
" style="fill: none; stroke: #222222; stroke-width: 0.9; stroke-linejoin: miter; stroke-linecap: square"/>
   </g>
   <g id="patch_10">
    <path d="M 48.263438 488.505187 
L 300.980829 488.505187 
" style="fill: none; stroke: #222222; stroke-width: 0.9; stroke-linejoin: miter; stroke-linecap: square"/>
   </g>
   <g id="text_33">
    <text style="font-weight: 700; font-size: 14px; font-family: 'Arial'; text-anchor: middle" x="77.273369" y="327.355781" transform="rotate(-0 77.273369 327.355781)">*</text>
   </g>
   <g id="text_34">
    <text style="font-weight: 700; font-size: 14px; font-family: 'Arial'; text-anchor: middle" x="271.970897" y="324.252624" transform="rotate(-0 271.970897 324.252624)">***</text>
   </g>
   <g id="text_35">
    <text style="font-size: 9px; font-family: 'Arial'; text-anchor: end; fill: #555555" x="298.453655" y="306.728419" transform="rotate(-0 298.453655 306.728419)">n = 2,042; cases = 221</text>
   </g>
   <g id="text_36">
    <text style="font-weight: 700; font-size: 13.2px; font-family: 'Arial'; text-anchor: start; fill: #1f4e79" x="48.263437" y="288.465188" transform="rotate(-0 48.263437 288.465188)">C.  Within-person cosinor features</text>
   </g>
  </g>
  <g id="axes_4">
   <g id="patch_11">
    <path d="M 391.95909 488.505187 
L 745.763438 488.505187 
L 745.763438 294.465188 
L 391.95909 294.465188 
z
" style="fill: #ffffff"/>
   </g>
   <g id="FillBetweenPolyCollection_3">
    <defs>
     <path id="mbf3ce0f58a" d="M 399.330014 -258.455277 
L 399.330014 -174.022657 
L 414.071861 -173.378753 
L 428.813709 -168.080546 
L 443.555557 -158.921143 
L 458.297405 -146.228332 
L 473.039253 -135.699404 
L 487.781101 -113.18909 
L 502.522948 -117.983329 
L 517.264796 -120.482856 
L 532.006644 -99.352913 
L 546.748492 -83.596 
L 561.49034 -112.053901 
L 576.232188 -127.742203 
L 590.974035 -120.751873 
L 605.715883 -120.442241 
L 620.457731 -120.422324 
L 635.199579 -119.385078 
L 649.941427 -112.742441 
L 664.683274 -100.560022 
L 679.425122 -92.629554 
L 694.16697 -113.259403 
L 708.908818 -144.245062 
L 723.650666 -151.131271 
L 738.392514 -174.14465 
L 738.392514 -259.996 
L 738.392514 -259.996 
L 723.650666 -239.917705 
L 708.908818 -233.662653 
L 694.16697 -200.290177 
L 679.425122 -178.601796 
L 664.683274 -184.718509 
L 649.941427 -199.037665 
L 635.199579 -206.260686 
L 620.457731 -204.187496 
L 605.715883 -204.19027 
L 590.974035 -205.470821 
L 576.232188 -215.192857 
L 561.49034 -201.301138 
L 546.748492 -171.191549 
L 532.006644 -189.124213 
L 517.264796 -217.170934 
L 502.522948 -210.436608 
L 487.781101 -189.805616 
L 473.039253 -208.263693 
L 458.297405 -216.892215 
L 443.555557 -231.261922 
L 428.813709 -244.382249 
L 414.071861 -251.721725 
L 399.330014 -258.455277 
z
"/>
    </defs>
    <g clip-path="url(#p49eb75355d)">
     <use xlink:href="#mbf3ce0f58a" x="0" y="563.281187" style="fill: #6b5b95; fill-opacity: 0.22"/>
    </g>
   </g>
   <g id="matplotlib.axis_7">
    <g id="xtick_14">
     <g id="line2d_76">
      <path d="M 391.95909 488.505187 
L 391.95909 294.465188 
" clip-path="url(#p49eb75355d)" style="fill: none; stroke: #b0b0b0; stroke-opacity: 0.18; stroke-width: 0.6; stroke-linecap: square"/>
     </g>
     <g id="line2d_77">
      <g>
       <use xlink:href="#m97de885c3d" x="391.95909" y="488.505187" style="stroke: #000000; stroke-width: 0.8"/>
      </g>
     </g>
     <g id="text_37">
      <text style="font-size: 10px; font-family: 'Arial'; text-anchor: middle" x="391.95909" y="502.663" transform="rotate(-0 391.95909 502.663)">0</text>
     </g>
    </g>
    <g id="xtick_15">
     <g id="line2d_78">
      <path d="M 450.926481 488.505187 
L 450.926481 294.465188 
" clip-path="url(#p49eb75355d)" style="fill: none; stroke: #b0b0b0; stroke-opacity: 0.18; stroke-width: 0.6; stroke-linecap: square"/>
     </g>
     <g id="line2d_79">
      <g>
       <use xlink:href="#m97de885c3d" x="450.926481" y="488.505187" style="stroke: #000000; stroke-width: 0.8"/>
      </g>
     </g>
     <g id="text_38">
      <text style="font-size: 10px; font-family: 'Arial'; text-anchor: middle" x="450.926481" y="502.663" transform="rotate(-0 450.926481 502.663)">4</text>
     </g>
    </g>
    <g id="xtick_16">
     <g id="line2d_80">
      <path d="M 509.893872 488.505187 
L 509.893872 294.465188 
" clip-path="url(#p49eb75355d)" style="fill: none; stroke: #b0b0b0; stroke-opacity: 0.18; stroke-width: 0.6; stroke-linecap: square"/>
     </g>
     <g id="line2d_81">
      <g>
       <use xlink:href="#m97de885c3d" x="509.893872" y="488.505187" style="stroke: #000000; stroke-width: 0.8"/>
      </g>
     </g>
     <g id="text_39">
      <text style="font-size: 10px; font-family: 'Arial'; text-anchor: middle" x="509.893872" y="502.663" transform="rotate(-0 509.893872 502.663)">8</text>
     </g>
    </g>
    <g id="xtick_17">
     <g id="line2d_82">
      <path d="M 568.861264 488.505187 
L 568.861264 294.465188 
" clip-path="url(#p49eb75355d)" style="fill: none; stroke: #b0b0b0; stroke-opacity: 0.18; stroke-width: 0.6; stroke-linecap: square"/>
     </g>
     <g id="line2d_83">
      <g>
       <use xlink:href="#m97de885c3d" x="568.861264" y="488.505187" style="stroke: #000000; stroke-width: 0.8"/>
      </g>
     </g>
     <g id="text_40">
      <text style="font-size: 10px; font-family: 'Arial'; text-anchor: middle" x="568.861264" y="502.663" transform="rotate(-0 568.861264 502.663)">12</text>
     </g>
    </g>
    <g id="xtick_18">
     <g id="line2d_84">
      <path d="M 627.828655 488.505187 
L 627.828655 294.465188 
" clip-path="url(#p49eb75355d)" style="fill: none; stroke: #b0b0b0; stroke-opacity: 0.18; stroke-width: 0.6; stroke-linecap: square"/>
     </g>
     <g id="line2d_85">
      <g>
       <use xlink:href="#m97de885c3d" x="627.828655" y="488.505187" style="stroke: #000000; stroke-width: 0.8"/>
      </g>
     </g>
     <g id="text_41">
      <text style="font-size: 10px; font-family: 'Arial'; text-anchor: middle" x="627.828655" y="502.663" transform="rotate(-0 627.828655 502.663)">16</text>
     </g>
    </g>
    <g id="xtick_19">
     <g id="line2d_86">
      <path d="M 686.796046 488.505187 
L 686.796046 294.465188 
" clip-path="url(#p49eb75355d)" style="fill: none; stroke: #b0b0b0; stroke-opacity: 0.18; stroke-width: 0.6; stroke-linecap: square"/>
     </g>
     <g id="line2d_87">
      <g>
       <use xlink:href="#m97de885c3d" x="686.796046" y="488.505187" style="stroke: #000000; stroke-width: 0.8"/>
      </g>
     </g>
     <g id="text_42">
      <text style="font-size: 10px; font-family: 'Arial'; text-anchor: middle" x="686.796046" y="502.663" transform="rotate(-0 686.796046 502.663)">20</text>
     </g>
    </g>
    <g id="xtick_20">
     <g id="line2d_88">
      <path d="M 745.763438 488.505187 
L 745.763438 294.465188 
" clip-path="url(#p49eb75355d)" style="fill: none; stroke: #b0b0b0; stroke-opacity: 0.18; stroke-width: 0.6; stroke-linecap: square"/>
     </g>
     <g id="line2d_89">
      <g>
       <use xlink:href="#m97de885c3d" x="745.763438" y="488.505187" style="stroke: #000000; stroke-width: 0.8"/>
      </g>
     </g>
     <g id="text_43">
      <text style="font-size: 10px; font-family: 'Arial'; text-anchor: middle" x="745.763438" y="502.663" transform="rotate(-0 745.763438 502.663)">24</text>
     </g>
    </g>
    <g id="text_44">
     <text style="font-size: 11px; font-family: 'Arial'; text-anchor: middle" x="568.861264" y="516.524094" transform="rotate(-0 568.861264 516.524094)">Clock hour</text>
    </g>
   </g>
   <g id="matplotlib.axis_8">
    <g id="ytick_18">
     <g id="line2d_90">
      <path d="M 391.95909 471.063393 
L 745.763438 471.063393 
" clip-path="url(#p49eb75355d)" style="fill: none; stroke: #b0b0b0; stroke-opacity: 0.18; stroke-width: 0.6; stroke-linecap: square"/>
     </g>
     <g id="line2d_91">
      <g>
       <use xlink:href="#mb50a2316de" x="391.95909" y="471.063393" style="stroke: #000000; stroke-width: 0.8"/>
      </g>
     </g>
     <g id="text_45">
      <text style="font-size: 10px; font-family: 'Arial'; text-anchor: end" x="384.95909" y="474.6423" transform="rotate(-0 384.95909 474.6423)">0</text>
     </g>
    </g>
    <g id="ytick_19">
     <g id="line2d_92">
      <path d="M 391.95909 437.518886 
L 745.763438 437.518886 
" clip-path="url(#p49eb75355d)" style="fill: none; stroke: #b0b0b0; stroke-opacity: 0.18; stroke-width: 0.6; stroke-linecap: square"/>
     </g>
     <g id="line2d_93">
      <g>
       <use xlink:href="#mb50a2316de" x="391.95909" y="437.518886" style="stroke: #000000; stroke-width: 0.8"/>
      </g>
     </g>
     <g id="text_46">
      <text style="font-size: 10px; font-family: 'Arial'; text-anchor: end" x="384.95909" y="441.097792" transform="rotate(-0 384.95909 441.097792)">1</text>
     </g>
    </g>
    <g id="ytick_20">
     <g id="line2d_94">
      <path d="M 391.95909 403.974378 
L 745.763438 403.974378 
" clip-path="url(#p49eb75355d)" style="fill: none; stroke: #b0b0b0; stroke-opacity: 0.18; stroke-width: 0.6; stroke-linecap: square"/>
     </g>
     <g id="line2d_95">
      <g>
       <use xlink:href="#mb50a2316de" x="391.95909" y="403.974378" style="stroke: #000000; stroke-width: 0.8"/>
      </g>
     </g>
     <g id="text_47">
      <text style="font-size: 10px; font-family: 'Arial'; text-anchor: end" x="384.95909" y="407.553285" transform="rotate(-0 384.95909 407.553285)">2</text>
     </g>
    </g>
    <g id="ytick_21">
     <g id="line2d_96">
      <path d="M 391.95909 370.429871 
L 745.763438 370.429871 
" clip-path="url(#p49eb75355d)" style="fill: none; stroke: #b0b0b0; stroke-opacity: 0.18; stroke-width: 0.6; stroke-linecap: square"/>
     </g>
     <g id="line2d_97">
      <g>
       <use xlink:href="#mb50a2316de" x="391.95909" y="370.429871" style="stroke: #000000; stroke-width: 0.8"/>
      </g>
     </g>
     <g id="text_48">
      <text style="font-size: 10px; font-family: 'Arial'; text-anchor: end" x="384.95909" y="374.008777" transform="rotate(-0 384.95909 374.008777)">3</text>
     </g>
    </g>
    <g id="ytick_22">
     <g id="line2d_98">
      <path d="M 391.95909 336.885363 
L 745.763438 336.885363 
" clip-path="url(#p49eb75355d)" style="fill: none; stroke: #b0b0b0; stroke-opacity: 0.18; stroke-width: 0.6; stroke-linecap: square"/>
     </g>
     <g id="line2d_99">
      <g>
       <use xlink:href="#mb50a2316de" x="391.95909" y="336.885363" style="stroke: #000000; stroke-width: 0.8"/>
      </g>
     </g>
     <g id="text_49">
      <text style="font-size: 10px; font-family: 'Arial'; text-anchor: end" x="384.95909" y="340.46427" transform="rotate(-0 384.95909 340.46427)">4</text>
     </g>
    </g>
    <g id="ytick_23">
     <g id="line2d_100">
      <path d="M 391.95909 303.340856 
L 745.763438 303.340856 
" clip-path="url(#p49eb75355d)" style="fill: none; stroke: #b0b0b0; stroke-opacity: 0.18; stroke-width: 0.6; stroke-linecap: square"/>
     </g>
     <g id="line2d_101">
      <g>
       <use xlink:href="#mb50a2316de" x="391.95909" y="303.340856" style="stroke: #000000; stroke-width: 0.8"/>
      </g>
     </g>
     <g id="text_50">
      <text style="font-size: 10px; font-family: 'Arial'; text-anchor: end" x="384.95909" y="306.919762" transform="rotate(-0 384.95909 306.919762)">5</text>
     </g>
    </g>
    <g id="text_51">
     <text style="font-size: 11px; font-family: 'Arial'" transform="translate(361.448433 420.217531) rotate(-90)">Δ HR (bpm)</text>
     <text style="font-size: 11px; font-family: 'Arial'" transform="translate(373.211902 431.377375) rotate(-90)">cases − controls</text>
    </g>
   </g>
   <g id="line2d_102">
    <path d="M 391.95909 471.063393 
L 745.763438 471.063393 
" clip-path="url(#p49eb75355d)" style="fill: none; stroke-dasharray: 3.33,1.44; stroke-dashoffset: 0; stroke: #7a7a7a; stroke-width: 0.9"/>
   </g>
   <g id="line2d_103">
    <path d="M 399.330014 347.042221 
L 414.071861 350.730949 
L 428.813709 357.04979 
L 443.555557 368.189655 
L 458.297405 381.720914 
L 473.039253 391.299639 
L 487.781101 411.783834 
L 502.522948 399.071219 
L 517.264796 394.454292 
L 532.006644 419.042625 
L 546.748492 435.887413 
L 561.49034 406.603668 
L 576.232188 391.813658 
L 590.974035 400.169841 
L 605.715883 400.964932 
L 620.457731 400.976278 
L 635.199579 400.458305 
L 649.941427 407.391135 
L 664.683274 420.641922 
L 679.425122 427.665512 
L 694.16697 406.506397 
L 708.908818 374.32733 
L 723.650666 367.756699 
L 738.392514 346.210862 
" clip-path="url(#p49eb75355d)" style="fill: none; stroke: #6b5b95; stroke-width: 2; stroke-linecap: square"/>
   </g>
   <g id="patch_12">
    <path d="M 391.95909 488.505188 
L 391.95909 294.465188 
" style="fill: none; stroke: #222222; stroke-width: 0.9; stroke-linejoin: miter; stroke-linecap: square"/>
   </g>
   <g id="patch_13">
    <path d="M 391.95909 488.505187 
L 745.763438 488.505187 
" style="fill: none; stroke: #222222; stroke-width: 0.9; stroke-linejoin: miter; stroke-linecap: square"/>
   </g>
   <g id="text_52">
    <text style="font-weight: 700; font-size: 13.2px; font-family: 'Arial'; text-anchor: start; fill: #1f4e79" x="391.95909" y="288.465188" transform="rotate(-0 391.95909 288.465188)">D.  Hour-by-hour difference</text>
   </g>
  </g>
  <g id="legend_1">
   <g id="line2d_104">
    <path d="M 205.249375 546.4765 
L 214.249375 546.4765 
L 223.249375 546.4765 
" style="fill: none"/>
    <g>
     <use xlink:href="#mf243a26d3f" x="214.249375" y="546.4765" style="fill: #1f4e79; stroke: #ffffff"/>
    </g>
   </g>
   <g id="text_53">
    <text style="font-size: 10px; font-family: 'Arial'; text-anchor: start" x="231.249375" y="549.9765" transform="rotate(-0 231.249375 549.9765)">Normotensive controls (n = 2,004)</text>
   </g>
   <g id="line2d_105">
    <path d="M 402.143125 546.4765 
L 411.143125 546.4765 
L 420.143125 546.4765 
" style="fill: none"/>
    <g>
     <use xlink:href="#mbcc9fffe38" x="411.143125" y="546.4765" style="fill: #e8635d; stroke: #ffffff"/>
    </g>
   </g>
   <g id="text_54">
    <text style="font-size: 10px; font-family: 'Arial'; text-anchor: start" x="428.143125" y="549.9765" transform="rotate(-0 428.143125 549.9765)">Incident hypertension (n = 270)</text>
   </g>
  </g>
 </g>
 <defs>
  <clipPath id="pa16dff5244">
   <rect x="48.263437" y="22.809187" width="252.717391" height="194.04"/>
  </clipPath>
  <clipPath id="pca9ce2b5be">
   <rect x="391.95909" y="22.809187" width="353.804348" height="194.04"/>
  </clipPath>
  <clipPath id="pf91a485829">
   <rect x="48.263437" y="294.465188" width="252.717391" height="194.04"/>
  </clipPath>
  <clipPath id="p49eb75355d">
   <rect x="391.95909" y="294.465188" width="353.804348" height="194.04"/>
  </clipPath>
 </defs>
</svg>
